<svg xmlns="http://www.w3.org/2000/svg" xmlns:xlink="http://www.w3.org/1999/xlink" contentStyleType="text/css" data-diagram-type="DESCRIPTION" height="1027px" preserveAspectRatio="none" style="width:978px;height:1027px;background:#FFFFFF;" version="1.1" viewBox="0 0 978 1027" width="978px" zoomAndPan="magnify"><defs/><g><!--cluster User Side - DIU Library Portal--><g class="cluster" data-entity="User Side - DIU Library Portal" data-source-line="8" data-uid="ent0004" id="cluster_User Side - DIU Library Portal"><path d="M96.33,6 L296.8066,6 A3.75,3.75 0 0 1 299.3066,8.5 L306.3066,25.9688 L968.93,25.9688 A2.5,2.5 0 0 1 971.43,28.4688 L971.43,578.5 A2.5,2.5 0 0 1 968.93,581 L96.33,581 A2.5,2.5 0 0 1 93.83,578.5 L93.83,8.5 A2.5,2.5 0 0 1 96.33,6" fill="none" style="stroke:#000000;stroke-width:1.5;"/><line style="stroke:#000000;stroke-width:1.5;" x1="93.83" x2="306.3066" y1="25.9688" y2="25.9688"/><text fill="#000000" font-family="sans-serif" font-size="12" font-weight="bold" lengthAdjust="spacing" textLength="199.4766" x="97.83" y="19.1387">User Side - DIU Library Portal</text></g><!--cluster Admin Side - DIU Library Portal--><g class="cluster" data-entity="Admin Side - DIU Library Portal" data-source-line="50" data-uid="ent0037" id="cluster_Admin Side - DIU Library Portal"><path d="M93.96,605 L306.5303,605 A3.75,3.75 0 0 1 309.0303,607.5 L316.0303,624.9688 L743.01,624.9688 A2.5,2.5 0 0 1 745.51,627.4688 L745.51,1017.5 A2.5,2.5 0 0 1 743.01,1020 L93.96,1020 A2.5,2.5 0 0 1 91.46,1017.5 L91.46,607.5 A2.5,2.5 0 0 1 93.96,605" fill="none" style="stroke:#000000;stroke-width:1.5;"/><line style="stroke:#000000;stroke-width:1.5;" x1="91.46" x2="316.0303" y1="624.9688" y2="624.9688"/><text fill="#000000" font-family="sans-serif" font-size="12" font-weight="bold" lengthAdjust="spacing" textLength="211.5703" x="95.46" y="618.1387">Admin Side - DIU Library Portal</text></g><!--entity Login--><g class="entity" data-entity="Login" data-source-line="9" data-uid="ent0005" id="entity_Login"><ellipse cx="199.4204" cy="283.9974" fill="#F1F1F1" rx="26.0404" ry="12.8774" style="stroke:#181818;stroke-width:0.5;"/><text fill="#000000" font-family="sans-serif" font-size="12" lengthAdjust="spacing" textLength="32.584" x="183.1284" y="287.4818">Login</text></g><!--entity Validate Credentials--><g class="entity" data-entity="Validate Credentials" data-source-line="10" data-uid="ent0006" id="entity_Validate Credentials"><ellipse cx="199.4213" cy="205.0043" fill="#F1F1F1" rx="73.0213" ry="17.0043" style="stroke:#181818;stroke-width:0.5;"/><text fill="#000000" font-family="sans-serif" font-size="12" lengthAdjust="spacing" textLength="121.3828" x="138.7299" y="208.4886">Validate Credentials</text></g><!--entity Register Account--><g class="entity" data-entity="Register Account" data-source-line="11" data-uid="ent0007" id="entity_Register Account"><ellipse cx="199.4247" cy="452.9969" fill="#F1F1F1" rx="64.9847" ry="15.3969" style="stroke:#181818;stroke-width:0.5;"/><text fill="#000000" font-family="sans-serif" font-size="12" lengthAdjust="spacing" textLength="102.4219" x="148.2137" y="456.4813">Register Account</text></g><!--entity Validate Registration Data--><g class="entity" data-entity="Validate Registration Data" data-source-line="12" data-uid="ent0008" id="entity_Validate Registration Data"><ellipse cx="199.4206" cy="367.9981" fill="#F1F1F1" rx="89.5906" ry="20.3181" style="stroke:#181818;stroke-width:0.5;"/><text fill="#000000" font-family="sans-serif" font-size="12" lengthAdjust="spacing" textLength="158.4727" x="120.1843" y="371.4825">Validate Registration Data</text></g><!--entity Update Profile--><g class="entity" data-entity="Update Profile" data-source-line="13" data-uid="ent0009" id="entity_Update Profile"><ellipse cx="642.2206" cy="267.9961" fill="#F1F1F1" rx="58.0306" ry="14.0061" style="stroke:#181818;stroke-width:0.5;"/><text fill="#000000" font-family="sans-serif" font-size="12" lengthAdjust="spacing" textLength="85.0605" x="599.6903" y="271.4805">Update Profile</text></g><!--entity Change Password--><g class="entity" data-entity="Change Password" data-source-line="14" data-uid="ent0010" id="entity_Change Password"><ellipse cx="642.2242" cy="189.0008" fill="#F1F1F1" rx="66.7042" ry="15.7408" style="stroke:#181818;stroke-width:0.5;"/><text fill="#000000" font-family="sans-serif" font-size="12" lengthAdjust="spacing" textLength="106.5586" x="588.9449" y="192.4852">Change Password</text></g><!--entity View Home--><g class="entity" data-entity="View Home" data-source-line="15" data-uid="ent0011" id="entity_View Home"><ellipse cx="423.1577" cy="273.9974" fill="#F1F1F1" rx="51.0777" ry="12.8774" style="stroke:#181818;stroke-width:0.5;"/><text fill="#000000" font-family="sans-serif" font-size="12" lengthAdjust="spacing" textLength="67.9922" x="389.1616" y="277.4818">View Home</text></g><!--entity View Available Books--><g class="entity" data-entity="View Available Books" data-source-line="16" data-uid="ent0012" id="entity_View Available Books"><ellipse cx="642.2209" cy="120.9982" fill="#F1F1F1" rx="75.6909" ry="17.5382" style="stroke:#181818;stroke-width:0.5;"/><text fill="#000000" font-family="sans-serif" font-size="12" lengthAdjust="spacing" textLength="127.5059" x="578.468" y="124.4826">View Available Books</text></g><!--entity Rent Book--><g class="entity" data-entity="Rent Book" data-source-line="17" data-uid="ent0013" id="entity_Rent Book"><ellipse cx="873.9662" cy="137.9974" fill="#F1F1F1" rx="46.6362" ry="12.8774" style="stroke:#181818;stroke-width:0.5;"/><text fill="#000000" font-family="sans-serif" font-size="12" lengthAdjust="spacing" textLength="61.7109" x="843.1108" y="141.4818">Rent Book</text></g><!--entity Check Book Availability--><g class="entity" data-entity="Check Book Availability" data-source-line="18" data-uid="ent0014" id="entity_Check Book Availability"><ellipse cx="873.97" cy="57.002" fill="#F1F1F1" rx="81.46" ry="18.692" style="stroke:#181818;stroke-width:0.5;"/><text fill="#000000" font-family="sans-serif" font-size="12" lengthAdjust="spacing" textLength="140.5195" x="803.7102" y="60.4864">Check Book Availability</text></g><!--entity Return Book--><g class="entity" data-entity="Return Book" data-source-line="19" data-uid="ent0015" id="entity_Return Book"><ellipse cx="642.2186" cy="552.0037" fill="#F1F1F1" rx="53.9686" ry="13.1937" style="stroke:#181818;stroke-width:0.5;"/><text fill="#000000" font-family="sans-serif" font-size="12" lengthAdjust="spacing" textLength="74.25" x="605.0936" y="555.4881">Return Book</text></g><!--entity Check Return Eligibility--><g class="entity" data-entity="Check Return Eligibility" data-source-line="20" data-uid="ent0016" id="entity_Check Return Eligibility"><ellipse cx="642.2213" cy="471.0023" fill="#F1F1F1" rx="81.1113" ry="18.6223" style="stroke:#181818;stroke-width:0.5;"/><text fill="#000000" font-family="sans-serif" font-size="12" lengthAdjust="spacing" textLength="139.7402" x="572.3512" y="474.4866">Check Return Eligibility</text></g><!--entity Contact Us--><g class="entity" data-entity="Contact Us" data-source-line="21" data-uid="ent0017" id="entity_Contact Us"><ellipse cx="642.2217" cy="404.9974" fill="#F1F1F1" rx="49.3417" ry="12.8774" style="stroke:#181818;stroke-width:0.5;"/><text fill="#000000" font-family="sans-serif" font-size="12" lengthAdjust="spacing" textLength="65.5371" x="609.4532" y="408.4818">Contact Us</text></g><!--entity Send Email--><g class="entity" data-entity="Send Email" data-source-line="22" data-uid="ent0018" id="entity_Send Email"><ellipse cx="642.2196" cy="329.9974" fill="#F1F1F1" rx="50.6096" ry="12.8774" style="stroke:#181818;stroke-width:0.5;"/><text fill="#000000" font-family="sans-serif" font-size="12" lengthAdjust="spacing" textLength="67.3301" x="608.5545" y="333.4818">Send Email</text></g><!--entity Weekly Updates--><g class="entity" data-entity="Weekly Updates" data-source-line="23" data-uid="ent0019" id="entity_Weekly Updates"><ellipse cx="642.2242" cy="52.9968" fill="#F1F1F1" rx="62.9842" ry="14.9968" style="stroke:#181818;stroke-width:0.5;"/><text fill="#000000" font-family="sans-serif" font-size="12" lengthAdjust="spacing" textLength="97.541" x="593.4537" y="56.4812">Weekly Updates</text></g><!--entity Logout--><g class="entity" data-entity="Logout" data-source-line="24" data-uid="ent0020" id="entity_Logout"><ellipse cx="199.4213" cy="517.9974" fill="#F1F1F1" rx="32.2013" ry="12.8774" style="stroke:#181818;stroke-width:0.5;"/><text fill="#000000" font-family="sans-serif" font-size="12" lengthAdjust="spacing" textLength="41.2969" x="178.7729" y="521.4818">Logout</text></g><!--entity Admin Login--><g class="entity" data-entity="Admin Login" data-source-line="51" data-uid="ent0038" id="entity_Admin Login"><ellipse cx="199.4189" cy="741.9978" fill="#F1F1F1" rx="54.1889" ry="13.2378" style="stroke:#181818;stroke-width:0.5;"/><text fill="#000000" font-family="sans-serif" font-size="12" lengthAdjust="spacing" textLength="74.8535" x="161.9921" y="745.4821">Admin Login</text></g><!--entity Validate Admin Credentials--><g class="entity" data-entity="Validate Admin Credentials" data-source-line="52" data-uid="ent0039" id="entity_Validate Admin Credentials"><ellipse cx="199.4166" cy="658.0033" fill="#F1F1F1" rx="91.9666" ry="20.7933" style="stroke:#181818;stroke-width:0.5;"/><text fill="#000000" font-family="sans-serif" font-size="12" lengthAdjust="spacing" textLength="163.6523" x="117.5904" y="661.4877">Validate Admin Credentials</text></g><!--entity Manage Categories--><g class="entity" data-entity="Manage Categories" data-source-line="53" data-uid="ent0040" id="entity_Manage Categories"><ellipse cx="423.1613" cy="882.0043" fill="#F1F1F1" rx="70.7713" ry="16.5543" style="stroke:#181818;stroke-width:0.5;"/><text fill="#000000" font-family="sans-serif" font-size="12" lengthAdjust="spacing" textLength="116.1621" x="365.0802" y="885.4886">Manage Categories</text></g><!--entity Add New Category--><g class="entity" data-entity="Add New Category" data-source-line="54" data-uid="ent0041" id="entity_Add New Category"><ellipse cx="642.2222" cy="988.0044" fill="#F1F1F1" rx="69.0222" ry="16.2044" style="stroke:#181818;stroke-width:0.5;"/><text fill="#000000" font-family="sans-serif" font-size="12" lengthAdjust="spacing" textLength="112.0605" x="586.1919" y="991.4888">Add New Category</text></g><!--entity Update Existing Category--><g class="entity" data-entity="Update Existing Category" data-source-line="55" data-uid="ent0042" id="entity_Update Existing Category"><ellipse cx="642.2212" cy="916.9982" fill="#F1F1F1" rx="87.2912" ry="19.8582" style="stroke:#181818;stroke-width:0.5;"/><text fill="#000000" font-family="sans-serif" font-size="12" lengthAdjust="spacing" textLength="153.4336" x="565.5044" y="920.4826">Update Existing Category</text></g><!--entity Delete Category--><g class="entity" data-entity="Delete Category" data-source-line="56" data-uid="ent0043" id="entity_Delete Category"><ellipse cx="642.224" cy="846.9988" fill="#F1F1F1" rx="63.194" ry="15.0388" style="stroke:#181818;stroke-width:0.5;"/><text fill="#000000" font-family="sans-serif" font-size="12" lengthAdjust="spacing" textLength="98.0566" x="593.1956" y="850.4832">Delete Category</text></g><!--entity Manage Books--><g class="entity" data-entity="Manage Books" data-source-line="57" data-uid="ent0044" id="entity_Manage Books"><ellipse cx="423.1567" cy="742.0033" fill="#F1F1F1" rx="59.0167" ry="14.2033" style="stroke:#181818;stroke-width:0.5;"/><text fill="#000000" font-family="sans-serif" font-size="12" lengthAdjust="spacing" textLength="87.5977" x="379.3579" y="745.4877">Manage Books</text></g><!--entity Add New Book--><g class="entity" data-entity="Add New Book" data-source-line="58" data-uid="ent0045" id="entity_Add New Book"><ellipse cx="642.2168" cy="782.9954" fill="#F1F1F1" rx="58.8268" ry="14.1654" style="stroke:#181818;stroke-width:0.5;"/><text fill="#000000" font-family="sans-serif" font-size="12" lengthAdjust="spacing" textLength="87.1113" x="598.6612" y="786.4797">Add New Book</text></g><!--entity Update Existing Book--><g class="entity" data-entity="Update Existing Book" data-source-line="59" data-uid="ent0046" id="entity_Update Existing Book"><ellipse cx="642.2204" cy="716.0041" fill="#F1F1F1" rx="76.1204" ry="17.6241" style="stroke:#181818;stroke-width:0.5;"/><text fill="#000000" font-family="sans-serif" font-size="12" lengthAdjust="spacing" textLength="128.4844" x="577.9782" y="719.4885">Update Existing Book</text></g><!--entity Delete Book--><g class="entity" data-entity="Delete Book" data-source-line="60" data-uid="ent0047" id="entity_Delete Book"><ellipse cx="642.224" cy="650.0008" fill="#F1F1F1" rx="53.554" ry="13.1108" style="stroke:#181818;stroke-width:0.5;"/><text fill="#000000" font-family="sans-serif" font-size="12" lengthAdjust="spacing" textLength="73.1074" x="605.6703" y="653.4852">Delete Book</text></g><!--entity View Members--><g class="entity" data-entity="View Members" data-source-line="61" data-uid="ent0048" id="entity_View Members"><ellipse cx="423.1592" cy="678.9978" fill="#F1F1F1" rx="59.2392" ry="14.2478" style="stroke:#181818;stroke-width:0.5;"/><text fill="#000000" font-family="sans-serif" font-size="12" lengthAdjust="spacing" textLength="88.166" x="379.0762" y="682.4822">View Members</text></g><!--entity User--><g class="entity" data-entity="User" data-source-line="5" data-uid="ent0002" id="entity_User"><ellipse cx="25.2258" cy="424.52" fill="#F1F1F1" rx="8" ry="8" style="stroke:#181818;stroke-width:0.5;"/><path d="M25.2258,432.52 L25.2258,459.52 M12.2258,440.52 L38.2258,440.52 M25.2258,459.52 L12.2258,474.52 M25.2258,459.52 L38.2258,474.52" fill="none" style="stroke:#181818;stroke-width:0.5;"/><text fill="#000000" font-family="sans-serif" font-size="12" lengthAdjust="spacing" textLength="27.3516" x="11.55" y="487.1587">User</text></g><!--entity Admin--><g class="entity" data-entity="Admin" data-source-line="6" data-uid="ent0003" id="entity_Admin"><ellipse cx="25.2275" cy="552.52" fill="#F1F1F1" rx="8" ry="8" style="stroke:#181818;stroke-width:0.5;"/><path d="M25.2275,560.52 L25.2275,587.52 M12.2275,568.52 L38.2275,568.52 M25.2275,587.52 L12.2275,602.52 M25.2275,587.52 L38.2275,602.52" fill="none" style="stroke:#181818;stroke-width:0.5;"/><text fill="#000000" font-family="sans-serif" font-size="12" lengthAdjust="spacing" textLength="38.4551" x="6" y="615.1587">Admin</text></g><!--link User to Login--><g class="link" data-entity-1="User" data-entity-2="Login" data-source-line="26" data-uid="lnk21" id="link_User_Login"><path d="M35.54,415.79 C44.01,388.82 59,353.15 83.46,330 C109.06,305.76 143.1775,294.9772 168.6075,289.4372" fill="none" id="User-to-Login" style="stroke:#181818;stroke-width:1;"/><polygon fill="#181818" points="174.47,288.16,164.8248,286.1674,169.5846,289.2243,166.5277,293.9841,174.47,288.16" style="stroke:#181818;stroke-width:1;"/></g><!--link Login to Validate Credentials--><g class="link" data-entity-1="Login" data-entity-2="Validate Credentials" data-source-line="27" data-uid="lnk22" id="link_Login_Validate Credentials"><path d="M199.42,270.95 C199.42,257.63 199.42,242.88 199.42,228.21" fill="none" id="Login-to-Validate Credentials" style="stroke:#181818;stroke-width:1;stroke-dasharray:7.0,7.0;"/><polygon fill="#181818" points="199.42,222.21,195.42,231.21,199.42,227.21,203.42,231.21,199.42,222.21" style="stroke:#181818;stroke-width:1;"/><text fill="#000000" font-family="sans-serif" font-size="12" lengthAdjust="spacing" textLength="58.1602" x="159.92" y="251.1987">&#171;include&#187;</text></g><!--link User to Register Account--><g class="link" data-entity-1="User" data-entity-2="Register Account" data-source-line="29" data-uid="lnk23" id="link_User_Register Account"><path d="M39.17,453 C59.27,453 93.32,453 128.22,453" fill="none" id="User-to-Register Account" style="stroke:#181818;stroke-width:1;"/><polygon fill="#181818" points="134.22,453,125.22,449,129.22,453,125.22,457,134.22,453" style="stroke:#181818;stroke-width:1;"/></g><!--link Register Account to Validate Registration Data--><g class="link" data-entity-1="Register Account" data-entity-2="Validate Registration Data" data-source-line="30" data-uid="lnk24" id="link_Register Account_Validate Registration Data"><path d="M199.42,437.41 C199.42,423.7 199.42,409.65 199.42,394.62" fill="none" id="Register Account-to-Validate Registration Data" style="stroke:#181818;stroke-width:1;stroke-dasharray:7.0,7.0;"/><polygon fill="#181818" points="199.42,388.62,195.42,397.62,199.42,393.62,203.42,397.62,199.42,388.62" style="stroke:#181818;stroke-width:1;"/><text fill="#000000" font-family="sans-serif" font-size="12" lengthAdjust="spacing" textLength="58.1602" x="159.92" y="417.5987">&#171;include&#187;</text></g><!--link Login to View Home--><g class="link" data-entity-1="Login" data-entity-2="View Home" data-source-line="32" data-uid="lnk25" id="link_Login_View Home"><path d="M225.86,282.85 C261.46,281.25 320.9061,278.5715 366.3861,276.5115" fill="none" id="Login-to-View Home" style="stroke:#181818;stroke-width:1;"/><polygon fill="#181818" points="372.38,276.24,363.2082,272.6513,367.3851,276.4662,363.5702,280.6431,372.38,276.24" style="stroke:#181818;stroke-width:1;"/></g><!--link View Home to View Available Books--><g class="link" data-entity-1="View Home" data-entity-2="View Available Books" data-source-line="33" data-uid="lnk26" id="link_View Home_View Available Books"><path d="M435.6,261.04 C457,237.43 505.44,187.01 554.93,156 C567.95,147.85 577.5917,143.1043 591.6117,137.6243" fill="none" id="View Home-to-View Available Books" style="stroke:#181818;stroke-width:1;"/><polygon fill="#181818" points="597.2,135.44,587.3614,134.9909,592.5431,137.2602,590.2738,142.442,597.2,135.44" style="stroke:#181818;stroke-width:1;"/></g><!--link View Available Books to Rent Book--><g class="link" data-entity-1="View Available Books" data-entity-2="Rent Book" data-source-line="34" data-uid="lnk27" id="link_View Available Books_Rent Book"><path d="M714.97,126.31 C752.1,129.06 790.2765,131.8756 822.4565,134.2656" fill="none" id="View Available Books-to-Rent Book" style="stroke:#181818;stroke-width:1;"/><polygon fill="#181818" points="828.44,134.71,819.761,130.0544,823.4537,134.3397,819.1685,138.0324,828.44,134.71" style="stroke:#181818;stroke-width:1;"/></g><!--link Rent Book to Check Book Availability--><g class="link" data-entity-1="Rent Book" data-entity-2="Check Book Availability" data-source-line="35" data-uid="lnk28" id="link_Rent Book_Check Book Availability"><path d="M873.97,124.62 C873.97,111.41 873.97,97.08 873.97,82.15" fill="none" id="Rent Book-to-Check Book Availability" style="stroke:#181818;stroke-width:1;stroke-dasharray:7.0,7.0;"/><polygon fill="#181818" points="873.97,76.15,869.97,85.15,873.97,81.15,877.97,85.15,873.97,76.15" style="stroke:#181818;stroke-width:1;"/><text fill="#000000" font-family="sans-serif" font-size="12" lengthAdjust="spacing" textLength="58.1602" x="834.47" y="105.0487">&#171;include&#187;</text></g><!--link View Home to Return Book--><g class="link" data-entity-1="View Home" data-entity-2="Return Book" data-source-line="37" data-uid="lnk29" id="link_View Home_Return Book"><path d="M428.54,287.3 C441.8,325.84 485,439.19 554.93,507 C570.58,522.17 586.8415,531.1485 604.6015,538.6385" fill="none" id="View Home-to-Return Book" style="stroke:#181818;stroke-width:1;"/><polygon fill="#181818" points="610.13,540.97,603.3917,533.787,605.5229,539.027,600.2829,541.1583,610.13,540.97" style="stroke:#181818;stroke-width:1;"/></g><!--link Return Book to Check Return Eligibility--><g class="link" data-entity-1="Return Book" data-entity-2="Check Return Eligibility" data-source-line="38" data-uid="lnk30" id="link_Return Book_Check Return Eligibility"><path d="M642.22,538.62 C642.22,525.32 642.22,510.8 642.22,495.85" fill="none" id="Return Book-to-Check Return Eligibility" style="stroke:#181818;stroke-width:1;stroke-dasharray:7.0,7.0;"/><polygon fill="#181818" points="642.22,489.85,638.22,498.85,642.22,494.85,646.22,498.85,642.22,489.85" style="stroke:#181818;stroke-width:1;"/><text fill="#000000" font-family="sans-serif" font-size="12" lengthAdjust="spacing" textLength="58.1602" x="602.72" y="518.8487">&#171;include&#187;</text></g><!--link View Home to Contact Us--><g class="link" data-entity-1="View Home" data-entity-2="Contact Us" data-source-line="40" data-uid="lnk31" id="link_View Home_Contact Us"><path d="M441.57,286.26 C466.3,303.49 513.23,335.5 554.93,360 C575.62,372.15 594.5304,381.9928 612.0604,390.7328" fill="none" id="View Home-to-Contact Us" style="stroke:#181818;stroke-width:1;"/><polygon fill="#181818" points="617.43,393.41,611.1603,385.8145,612.9553,391.179,607.5908,392.974,617.43,393.41" style="stroke:#181818;stroke-width:1;"/></g><!--link Contact Us to Send Email--><g class="link" data-entity-1="Contact Us" data-entity-2="Send Email" data-source-line="41" data-uid="lnk32" id="link_Contact Us_Send Email"><path d="M642.22,391.94 C642.22,378.25 642.22,362.89 642.22,349.17" fill="none" id="Contact Us-to-Send Email" style="stroke:#181818;stroke-width:1;stroke-dasharray:7.0,7.0;"/><polygon fill="#181818" points="642.22,343.17,638.22,352.17,642.22,348.17,646.22,352.17,642.22,343.17" style="stroke:#181818;stroke-width:1;"/><text fill="#000000" font-family="sans-serif" font-size="12" lengthAdjust="spacing" textLength="58.1602" x="602.72" y="372.1387">&#171;include&#187;</text></g><!--link View Home to Weekly Updates--><g class="link" data-entity-1="View Home" data-entity-2="Weekly Updates" data-source-line="43" data-uid="lnk33" id="link_View Home_Weekly Updates"><path d="M429.8,261.06 C445.06,227.45 490.44,136.48 554.93,86 C567.43,76.21 577.5044,71.0352 592.1044,65.9452" fill="none" id="View Home-to-Weekly Updates" style="stroke:#181818;stroke-width:1;"/><polygon fill="#181818" points="597.77,63.97,587.9549,63.1557,593.0487,65.616,590.5884,70.7098,597.77,63.97" style="stroke:#181818;stroke-width:1;"/></g><!--link View Home to Update Profile--><g class="link" data-entity-1="View Home" data-entity-2="Update Profile" data-source-line="44" data-uid="lnk34" id="link_View Home_Update Profile"><path d="M474.23,272.62 C507.03,271.71 543.9923,270.6852 578.1223,269.7452" fill="none" id="View Home-to-Update Profile" style="stroke:#181818;stroke-width:1;"/><polygon fill="#181818" points="584.12,269.58,575.0133,265.8293,579.1219,269.7177,575.2335,273.8263,584.12,269.58" style="stroke:#181818;stroke-width:1;"/></g><!--link Update Profile to Change Password--><g class="link" data-entity-1="Update Profile" data-entity-2="Change Password" data-source-line="45" data-uid="lnk35" id="link_Update Profile_Change Password"><path d="M642.22,253.51 C642.22,239.79 642.22,225.23 642.22,211.03" fill="none" id="Update Profile-to-Change Password" style="stroke:#181818;stroke-width:1;stroke-dasharray:7.0,7.0;"/><polygon fill="#181818" points="642.22,205.03,638.22,214.03,642.22,210.03,646.22,214.03,642.22,205.03" style="stroke:#181818;stroke-width:1;"/><text fill="#000000" font-family="sans-serif" font-size="12" lengthAdjust="spacing" textLength="56.4785" x="603.72" y="234.0087">&#171;extend&#187;</text></g><!--link User to Logout--><g class="link" data-entity-1="User" data-entity-2="Logout" data-source-line="47" data-uid="lnk36" id="link_User_Logout"><path d="M39.38,461.86 C50.67,469.16 67.59,479.34 83.46,486 C112.11,498.02 140.8063,505.623 164.4963,510.953" fill="none" id="User-to-Logout" style="stroke:#181818;stroke-width:1;"/><polygon fill="#181818" points="170.35,512.27,162.4475,506.392,165.4719,511.1725,160.6915,514.1969,170.35,512.27" style="stroke:#181818;stroke-width:1;"/></g><!--link Admin to Admin Login--><g class="link" data-entity-1="Admin" data-entity-2="Admin Login" data-source-line="64" data-uid="lnk49" id="link_Admin_Admin Login"><path d="M37.07,618.48 C45.97,643.35 60.83,675.14 83.46,696 C104,714.94 127.5592,724.8674 151.4492,731.6674" fill="none" id="Admin-to-Admin Login" style="stroke:#181818;stroke-width:1;"/><polygon fill="#181818" points="157.22,733.31,149.6589,726.9989,152.411,731.9412,147.4688,734.6933,157.22,733.31" style="stroke:#181818;stroke-width:1;"/></g><!--link Admin Login to Validate Admin Credentials--><g class="link" data-entity-1="Admin Login" data-entity-2="Validate Admin Credentials" data-source-line="65" data-uid="lnk50" id="link_Admin Login_Validate Admin Credentials"><path d="M199.42,728.5 C199.42,715.15 199.42,700.51 199.42,685.01" fill="none" id="Admin Login-to-Validate Admin Credentials" style="stroke:#181818;stroke-width:1;stroke-dasharray:7.0,7.0;"/><polygon fill="#181818" points="199.42,679.01,195.42,688.01,199.42,684.01,203.42,688.01,199.42,679.01" style="stroke:#181818;stroke-width:1;"/><text fill="#000000" font-family="sans-serif" font-size="12" lengthAdjust="spacing" textLength="58.1602" x="159.92" y="708.4187">&#171;include&#187;</text></g><!--link Admin Login to Manage Categories--><g class="link" data-entity-1="Admin Login" data-entity-2="Manage Categories" data-source-line="67" data-uid="lnk51" id="link_Admin Login_Manage Categories"><path d="M220.49,754.67 C261.11,780.32 347.8768,835.0964 392.2168,863.0964" fill="none" id="Admin Login-to-Manage Categories" style="stroke:#181818;stroke-width:1;"/><polygon fill="#181818" points="397.29,866.3,391.816,858.1125,393.0624,863.6303,387.5445,864.8767,397.29,866.3" style="stroke:#181818;stroke-width:1;"/></g><!--link Manage Categories to Add New Category--><g class="link" data-entity-1="Manage Categories" data-entity-2="Add New Category" data-source-line="68" data-uid="lnk52" id="link_Manage Categories_Add New Category"><path d="M450.19,897.63 C476.22,912.94 517.64,936.47 554.93,954 C570.52,961.33 582.556,966.3262 597.796,972.1562" fill="none" id="Manage Categories-to-Add New Category" style="stroke:#181818;stroke-width:1;"/><polygon fill="#181818" points="603.4,974.3,596.4233,967.3484,598.73,972.5135,593.5649,974.8203,603.4,974.3" style="stroke:#181818;stroke-width:1;"/></g><!--link Manage Categories to Update Existing Category--><g class="link" data-entity-1="Manage Categories" data-entity-2="Update Existing Category" data-source-line="69" data-uid="lnk53" id="link_Manage Categories_Update Existing Category"><path d="M482.33,891.38 C509.33,895.73 535.7463,899.996 564.1863,904.576" fill="none" id="Manage Categories-to-Update Existing Category" style="stroke:#181818;stroke-width:1;"/><polygon fill="#181818" points="570.11,905.53,561.8605,900.1499,565.1736,904.735,560.5885,908.0482,570.11,905.53" style="stroke:#181818;stroke-width:1;"/></g><!--link Manage Categories to Delete Category--><g class="link" data-entity-1="Manage Categories" data-entity-2="Delete Category" data-source-line="70" data-uid="lnk54" id="link_Manage Categories_Delete Category"><path d="M482.33,872.62 C515.48,867.27 550.7664,861.5847 582.9064,856.4047" fill="none" id="Manage Categories-to-Delete Category" style="stroke:#181818;stroke-width:1;"/><polygon fill="#181818" points="588.83,855.45,579.3082,852.933,583.8937,856.2456,580.5811,860.8311,588.83,855.45" style="stroke:#181818;stroke-width:1;"/></g><!--link Admin Login to Manage Books--><g class="link" data-entity-1="Admin Login" data-entity-2="Manage Books" data-source-line="72" data-uid="lnk55" id="link_Admin Login_Manage Books"><path d="M254.1,742 C287.29,742 323.91,742 357.92,742" fill="none" id="Admin Login-to-Manage Books" style="stroke:#181818;stroke-width:1;"/><polygon fill="#181818" points="363.92,742,354.92,738,358.92,742,354.92,746,363.92,742" style="stroke:#181818;stroke-width:1;"/></g><!--link Manage Books to Add New Book--><g class="link" data-entity-1="Manage Books" data-entity-2="Add New Book" data-source-line="73" data-uid="lnk56" id="link_Manage Books_Add New Book"><path d="M470.72,750.8 C507.35,757.71 552.2342,766.1969 588.8342,773.1069" fill="none" id="Manage Books-to-Add New Book" style="stroke:#181818;stroke-width:1;"/><polygon fill="#181818" points="594.73,774.22,586.6283,768.6198,589.8168,773.2924,585.1442,776.4809,594.73,774.22" style="stroke:#181818;stroke-width:1;"/></g><!--link Manage Books to Update Existing Book--><g class="link" data-entity-1="Manage Books" data-entity-2="Update Existing Book" data-source-line="74" data-uid="lnk57" id="link_Manage Books_Update Existing Book"><path d="M476.7,735.71 C505.94,732.2 536.6826,728.5235 567.9926,724.7735" fill="none" id="Manage Books-to-Update Existing Book" style="stroke:#181818;stroke-width:1;"/><polygon fill="#181818" points="573.95,724.06,564.5382,721.1587,568.9855,724.6546,565.4895,729.1019,573.95,724.06" style="stroke:#181818;stroke-width:1;"/></g><!--link Manage Books to Delete Book--><g class="link" data-entity-1="Manage Books" data-entity-2="Delete Book" data-source-line="75" data-uid="lnk58" id="link_Manage Books_Delete Book"><path d="M453.13,729.43 C465.72,723.89 480.6,717.23 493.93,711 C521.3,698.2 527.11,692.79 554.93,681 C572.52,673.54 586.9069,668.2235 603.2569,662.5935" fill="none" id="Manage Books-to-Delete Book" style="stroke:#181818;stroke-width:1;"/><polygon fill="#181818" points="608.93,660.64,599.118,659.7882,604.2024,662.2679,601.7227,667.3523,608.93,660.64" style="stroke:#181818;stroke-width:1;"/></g><!--link Admin Login to View Members--><g class="link" data-entity-1="Admin Login" data-entity-2="View Members" data-source-line="77" data-uid="lnk59" id="link_Admin Login_View Members"><path d="M236.05,731.88 C276.45,720.4 336.3085,703.3901 377.8685,691.5801" fill="none" id="Admin Login-to-View Members" style="stroke:#181818;stroke-width:1;"/><polygon fill="#181818" points="383.64,689.94,373.8894,688.5524,378.8304,691.3067,376.0761,696.2478,383.64,689.94" style="stroke:#181818;stroke-width:1;"/></g><!--link Admin to Logout--><g class="link" data-entity-1="Admin" data-entity-2="Logout" data-source-line="78" data-uid="lnk60" id="link_Admin_Logout"><path d="M44.66,574.26 C76.06,562.77 134.2849,541.4606 169.0149,528.7606" fill="none" id="Admin-to-Logout" style="stroke:#181818;stroke-width:1;"/><polygon fill="#181818" points="174.65,526.7,164.8237,526.0342,169.9541,528.4172,167.5712,533.5476,174.65,526.7" style="stroke:#181818;stroke-width:1;"/></g><!--SRC=[ZLHDRzim3BtxLn0zhOSCs8v34I1BCcn0MmGBifqLYt48or8WoskpeV-zYlmHIPQxtiGFFpu-aXPuC60KQ2gE1ZXfp0qfcTKboHFJh89AIPKVjQeGZ6xGYt0yi4QORqgQBVr5-FGvorXkb8PTZRfxBdX5CijEB2zPWN1p2S6MEC8CLZzsS4zxpVGPDaeR9cxWNmRmuLuL96ylhrzC46S6OQcHepJ4HEq2Fx6WsbYiHPwhHfemkurgTka5Limm5zwTN72ZrO44EjVooAIbjM5r_QGqRr48d-2xRVXgBVum4cml4BugLVOCf75c1uHvwSm-cGIPSvTf6YtZtCwx5bIGbxoqSbhfh8REtABaiAuieZD_8vRY36qdROOLIpMsV_jsuivcSr_1zWKVvnDYmXUukoEPYuRZV6w_272ICe-S8VfO_AY6HyiLIGZkB2-Q6a0oqDFsPtEr7D6fKILOnbpYIVgsXvqOxJl0eybxfeFsDk4TO8b5YLCIvn2vkfR24t75yTbOEctjOElSAhvu1-z-0F-z-3OhSVTj8Bx-1oOlu4kRKIXDNOCBpk7HzjYvptvBwsUxaoIBCBX2WGP3NuTztRCUTfXw33a4EhZ1Tee_OBL7FRhLjZ4dMzoyRuUdDLOZiGh1vwv0MgwnjwUJa74g-KrvfpuQoVucxUia0aT8Tj0yaJCvhqHkCC8qhNYgtYI70tW5]--></g></svg>