<svg xmlns="http://www.w3.org/2000/svg" xmlns:xlink="http://www.w3.org/1999/xlink" contentStyleType="text/css" data-diagram-type="ACTIVITY" height="1112px" preserveAspectRatio="none" style="width:1854px;height:1112px;background:#FFFFFF;" version="1.1" viewBox="0 0 1854 1112" width="1854px" zoomAndPan="magnify"><defs/><g><ellipse cx="917.4998" cy="20" fill="#222222" rx="10" ry="10" style="stroke:#222222;stroke-width:1;"/><rect fill="#F1F1F1" height="33.9688" rx="12.5" ry="12.5" style="stroke:#181818;stroke-width:0.5;" width="161.9199" x="836.5398" y="50"/><text fill="#000000" font-family="sans-serif" font-size="12" lengthAdjust="spacing" textLength="141.9199" x="846.5398" y="71.1387">Open DIU Library Portal</text><polygon fill="#F1F1F1" points="862.0137,103.9688,972.9858,103.9688,984.9858,115.9688,972.9858,127.9688,862.0137,127.9688,850.0137,115.9688,862.0137,103.9688" style="stroke:#181818;stroke-width:0.5;"/><text fill="#000000" font-family="sans-serif" font-size="11" lengthAdjust="spacing" textLength="110.9722" x="862.0137" y="119.7769">Already Registered?</text><text fill="#000000" font-family="sans-serif" font-size="11" lengthAdjust="spacing" textLength="19.2178" x="830.7959" y="113.3745">Yes</text><text fill="#000000" font-family="sans-serif" font-size="11" lengthAdjust="spacing" textLength="14.9585" x="984.9858" y="113.3745">No</text><rect fill="#F1F1F1" height="33.9688" rx="12.5" ry="12.5" style="stroke:#181818;stroke-width:0.5;" width="204.4121" x="637.7024" y="137.9688"/><text fill="#000000" font-family="sans-serif" font-size="12" lengthAdjust="spacing" textLength="184.4121" x="647.7024" y="159.1074">Enter Username and Password</text><rect fill="#F1F1F1" height="33.9688" rx="12.5" ry="12.5" style="stroke:#181818;stroke-width:0.5;" width="141.3828" x="669.217" y="191.9375"/><text fill="#000000" font-family="sans-serif" font-size="12" lengthAdjust="spacing" textLength="121.3828" x="679.217" y="213.0762">Validate Credentials</text><polygon fill="#F1F1F1" points="691.2168,245.9063,788.6001,245.9063,800.6001,257.9063,788.6001,269.9063,691.2168,269.9063,679.2168,257.9063,691.2168,245.9063" style="stroke:#181818;stroke-width:0.5;"/><text fill="#000000" font-family="sans-serif" font-size="11" lengthAdjust="spacing" textLength="97.3833" x="691.2168" y="261.7144">Login Successful?</text><text fill="#000000" font-family="sans-serif" font-size="11" lengthAdjust="spacing" textLength="19.2178" x="659.999" y="255.312">Yes</text><text fill="#000000" font-family="sans-serif" font-size="11" lengthAdjust="spacing" textLength="14.9585" x="800.6001" y="255.312">No</text><rect fill="#F1F1F1" height="33.9688" rx="12.5" ry="12.5" style="stroke:#181818;stroke-width:0.5;" width="125.1582" x="600.4583" y="279.9063"/><text fill="#000000" font-family="sans-serif" font-size="12" lengthAdjust="spacing" textLength="105.1582" x="610.4583" y="301.0449">Go to Home Page</text><rect fill="#F1F1F1" height="33.9688" rx="12.5" ry="12.5" style="stroke:#181818;stroke-width:0.5;" width="142.3262" x="745.6165" y="279.9063"/><text fill="#000000" font-family="sans-serif" font-size="12" lengthAdjust="spacing" textLength="122.3262" x="755.6165" y="301.0449">Show Error Message</text><ellipse cx="816.7795" cy="359.875" fill="none" rx="11" ry="11" style="stroke:#222222;stroke-width:1;"/><ellipse cx="816.7795" cy="359.875" fill="#222222" rx="6" ry="6" style="stroke:#222222;stroke-width:1;"/><rect fill="#F1F1F1" height="33.9688" rx="12.5" ry="12.5" style="stroke:#181818;stroke-width:0.5;" width="162.623" x="1013.7795" y="137.9688"/><text fill="#000000" font-family="sans-serif" font-size="12" lengthAdjust="spacing" textLength="142.623" x="1023.7795" y="159.1074">Go to Registration Page</text><rect fill="#F1F1F1" height="33.9688" rx="12.5" ry="12.5" style="stroke:#181818;stroke-width:0.5;" width="148.3027" x="1020.9397" y="191.9375"/><text fill="#000000" font-family="sans-serif" font-size="12" lengthAdjust="spacing" textLength="128.3027" x="1030.9397" y="213.0762">Fill Registration Form</text><rect fill="#F1F1F1" height="33.9688" rx="12.5" ry="12.5" style="stroke:#181818;stroke-width:0.5;" width="178.4727" x="1005.8547" y="245.9063"/><text fill="#000000" font-family="sans-serif" font-size="12" lengthAdjust="spacing" textLength="158.4727" x="1015.8547" y="267.0449">Validate Registration Data</text><polygon fill="#F1F1F1" points="1027.9202,314.875,1162.262,314.875,1174.262,326.875,1162.262,338.875,1027.9202,338.875,1015.9202,326.875,1027.9202,314.875" style="stroke:#181818;stroke-width:0.5;"/><text fill="#000000" font-family="sans-serif" font-size="11" lengthAdjust="spacing" textLength="134.3418" x="1027.9202" y="330.6831">Registration Successful?</text><text fill="#000000" font-family="sans-serif" font-size="11" lengthAdjust="spacing" textLength="19.2178" x="996.7024" y="324.2808">Yes</text><text fill="#000000" font-family="sans-serif" font-size="11" lengthAdjust="spacing" textLength="14.9585" x="1174.262" y="324.2808">No</text><rect fill="#F1F1F1" height="33.9688" rx="12.5" ry="12.5" style="stroke:#181818;stroke-width:0.5;" width="155.9551" x="927.9426" y="348.875"/><text fill="#000000" font-family="sans-serif" font-size="12" lengthAdjust="spacing" textLength="135.9551" x="937.9426" y="370.0137">Redirect to Login Page</text><rect fill="#F1F1F1" height="33.9688" rx="12.5" ry="12.5" style="stroke:#181818;stroke-width:0.5;" width="142.3262" x="1113.0989" y="348.875"/><text fill="#000000" font-family="sans-serif" font-size="12" lengthAdjust="spacing" textLength="122.3262" x="1123.0989" y="370.0137">Show Error Message</text><ellipse cx="1184.262" cy="413.8438" fill="none" rx="11" ry="11" style="stroke:#222222;stroke-width:1;"/><ellipse cx="1184.262" cy="413.8438" fill="#222222" rx="6" ry="6" style="stroke:#222222;stroke-width:1;"/><polygon fill="#F1F1F1" points="917.4998,434.8438,929.4998,446.8438,917.4998,458.8438,905.4998,446.8438,917.4998,434.8438" style="stroke:#181818;stroke-width:0.5;"/><rect fill="none" height="536.7256" style="stroke:#000000;stroke-width:1.5;" width="1832.9995" x="11" y="468.8438"/><path d="M98.7041,468.8438 L98.7041,478.1406 L88.7041,488.1406 L11,488.1406" fill="none" style="stroke:#000000;stroke-width:1.5;"/><text fill="#000000" font-family="sans-serif" font-size="14" lengthAdjust="spacing" textLength="77.7041" x="14" y="482.8389">User Home</text><rect fill="#F1F1F1" height="33.9688" rx="12.5" ry="12.5" style="stroke:#181818;stroke-width:0.5;" width="153.5996" x="840.7" y="505.1406"/><text fill="#000000" font-family="sans-serif" font-size="12" lengthAdjust="spacing" textLength="133.5996" x="850.7" y="526.2793">Display Home Options</text><polygon fill="#F1F1F1" points="51,614.8198,221.1616,614.8198,233.1616,626.8198,221.1616,638.8198,51,638.8198,39,626.8198,51,614.8198" style="stroke:#181818;stroke-width:0.5;"/><text fill="#000000" font-family="sans-serif" font-size="11" lengthAdjust="spacing" textLength="19.2178" x="140.0808" y="649.0303">Yes</text><text fill="#000000" font-family="sans-serif" font-size="11" lengthAdjust="spacing" textLength="170.1616" x="51" y="630.6279">Selects "View Available Books"</text><rect fill="#F1F1F1" height="33.9688" rx="12.5" ry="12.5" style="stroke:#181818;stroke-width:0.5;" width="122.7031" x="74.7292" y="670.5303"/><text fill="#000000" font-family="sans-serif" font-size="12" lengthAdjust="spacing" textLength="102.7031" x="84.7292" y="691.6689">Display Book List</text><polygon fill="#F1F1F1" points="365.0537,614.8198,474.9033,614.8198,486.9033,626.8198,474.9033,638.8198,365.0537,638.8198,353.0537,626.8198,365.0537,614.8198" style="stroke:#181818;stroke-width:0.5;"/><text fill="#000000" font-family="sans-serif" font-size="11" lengthAdjust="spacing" textLength="19.2178" x="423.9785" y="649.0303">Yes</text><text fill="#000000" font-family="sans-serif" font-size="11" lengthAdjust="spacing" textLength="109.8496" x="365.0537" y="630.6279">Selects "Rent Book"</text><rect fill="#F1F1F1" height="33.9688" rx="12.5" ry="12.5" style="stroke:#181818;stroke-width:0.5;" width="90.6992" x="374.6289" y="670.5303"/><text fill="#000000" font-family="sans-serif" font-size="12" lengthAdjust="spacing" textLength="70.6992" x="384.6289" y="691.6689">Select Book</text><rect fill="#F1F1F1" height="33.9688" rx="12.5" ry="12.5" style="stroke:#181818;stroke-width:0.5;" width="160.5195" x="339.7188" y="724.499"/><text fill="#000000" font-family="sans-serif" font-size="12" lengthAdjust="spacing" textLength="140.5195" x="349.7188" y="745.6377">Check Book Availability</text><polygon fill="#F1F1F1" points="391.842,793.4678,448.115,793.4678,460.115,805.4678,448.115,817.4678,391.842,817.4678,379.842,805.4678,391.842,793.4678" style="stroke:#181818;stroke-width:0.5;"/><text fill="#000000" font-family="sans-serif" font-size="11" lengthAdjust="spacing" textLength="56.2729" x="391.842" y="809.2759">Available?</text><text fill="#000000" font-family="sans-serif" font-size="11" lengthAdjust="spacing" textLength="19.2178" x="360.6243" y="802.8735">Yes</text><text fill="#000000" font-family="sans-serif" font-size="11" lengthAdjust="spacing" textLength="14.9585" x="460.115" y="802.8735">No</text><rect fill="#F1F1F1" height="33.9688" rx="12.5" ry="12.5" style="stroke:#181818;stroke-width:0.5;" width="99.3535" x="272.6196" y="827.4678"/><text fill="#000000" font-family="sans-serif" font-size="12" lengthAdjust="spacing" textLength="79.3535" x="282.6196" y="848.6064">Confirm Rent</text><rect fill="#F1F1F1" height="33.9688" rx="12.5" ry="12.5" style="stroke:#181818;stroke-width:0.5;" width="158.2695" x="243.1616" y="887.6006"/><text fill="#000000" font-family="sans-serif" font-size="12" lengthAdjust="spacing" textLength="138.2695" x="253.1616" y="908.7393">Update Rental Records</text><rect fill="#F1F1F1" height="33.9688" rx="12.5" ry="12.5" style="stroke:#181818;stroke-width:0.5;" width="192.459" x="421.4312" y="827.4678"/><text fill="#000000" font-family="sans-serif" font-size="12" lengthAdjust="spacing" textLength="172.459" x="431.4312" y="848.6064">Show Not Available Message</text><polygon fill="#F1F1F1" points="419.9785,927.5693,431.9785,939.5693,419.9785,951.5693,407.9785,939.5693,419.9785,927.5693" style="stroke:#181818;stroke-width:0.5;"/><polygon fill="#F1F1F1" points="768.5981,614.8198,889.9419,614.8198,901.9419,626.8198,889.9419,638.8198,768.5981,638.8198,756.5981,626.8198,768.5981,614.8198" style="stroke:#181818;stroke-width:0.5;"/><text fill="#000000" font-family="sans-serif" font-size="11" lengthAdjust="spacing" textLength="19.2178" x="833.27" y="649.0303">Yes</text><text fill="#000000" font-family="sans-serif" font-size="11" lengthAdjust="spacing" textLength="121.3438" x="768.5981" y="630.6279">Selects "Return Book"</text><rect fill="#F1F1F1" height="33.9688" rx="12.5" ry="12.5" style="stroke:#181818;stroke-width:0.5;" width="99.5527" x="779.4937" y="670.5303"/><text fill="#000000" font-family="sans-serif" font-size="12" lengthAdjust="spacing" textLength="79.5527" x="789.4937" y="691.6689">Select Rental</text><rect fill="#F1F1F1" height="33.9688" rx="12.5" ry="12.5" style="stroke:#181818;stroke-width:0.5;" width="159.7402" x="749.3999" y="724.499"/><text fill="#000000" font-family="sans-serif" font-size="12" lengthAdjust="spacing" textLength="139.7402" x="759.3999" y="745.6377">Check Return Eligibility</text><polygon fill="#F1F1F1" points="806.3972,793.4678,852.1428,793.4678,864.1428,805.4678,852.1428,817.4678,806.3972,817.4678,794.3972,805.4678,806.3972,793.4678" style="stroke:#181818;stroke-width:0.5;"/><text fill="#000000" font-family="sans-serif" font-size="11" lengthAdjust="spacing" textLength="45.7456" x="806.3972" y="809.2759">Eligible?</text><text fill="#000000" font-family="sans-serif" font-size="11" lengthAdjust="spacing" textLength="19.2178" x="775.1794" y="802.8735">Yes</text><text fill="#000000" font-family="sans-serif" font-size="11" lengthAdjust="spacing" textLength="14.9585" x="864.1428" y="802.8735">No</text><rect fill="#F1F1F1" height="33.9688" rx="12.5" ry="12.5" style="stroke:#181818;stroke-width:0.5;" width="111.8926" x="677.0786" y="827.4678"/><text fill="#000000" font-family="sans-serif" font-size="12" lengthAdjust="spacing" textLength="91.8926" x="687.0786" y="848.6064">Confirm Return</text><rect fill="#F1F1F1" height="33.9688" rx="12.5" ry="12.5" style="stroke:#181818;stroke-width:0.5;" width="158.2695" x="653.8901" y="887.6006"/><text fill="#000000" font-family="sans-serif" font-size="12" lengthAdjust="spacing" textLength="138.2695" x="663.8901" y="908.7393">Update Book Inventory</text><rect fill="#F1F1F1" height="33.9688" rx="12.5" ry="12.5" style="stroke:#181818;stroke-width:0.5;" width="186.7109" x="832.1597" y="827.4678"/><text fill="#000000" font-family="sans-serif" font-size="12" lengthAdjust="spacing" textLength="166.7109" x="842.1597" y="848.6064">Show Return Error Message</text><polygon fill="#F1F1F1" points="829.27,927.5693,841.27,939.5693,829.27,951.5693,817.27,939.5693,829.27,927.5693" style="stroke:#181818;stroke-width:0.5;"/><polygon fill="#F1F1F1" points="1073.3369,614.8198,1204.5903,614.8198,1216.5903,626.8198,1204.5903,638.8198,1073.3369,638.8198,1061.3369,626.8198,1073.3369,614.8198" style="stroke:#181818;stroke-width:0.5;"/><text fill="#000000" font-family="sans-serif" font-size="11" lengthAdjust="spacing" textLength="19.2178" x="1142.9636" y="649.0303">Yes</text><text fill="#000000" font-family="sans-serif" font-size="11" lengthAdjust="spacing" textLength="131.2534" x="1073.3369" y="630.6279">Selects "Update Profile"</text><rect fill="#F1F1F1" height="33.9688" rx="12.5" ry="12.5" style="stroke:#181818;stroke-width:0.5;" width="130.2559" x="1073.8357" y="670.5303"/><text fill="#000000" font-family="sans-serif" font-size="12" lengthAdjust="spacing" textLength="110.2559" x="1083.8357" y="691.6689">Edit Profile Details</text><rect fill="#F1F1F1" height="33.9688" rx="12.5" ry="12.5" style="stroke:#181818;stroke-width:0.5;" width="126.5586" x="1075.6843" y="772.9014"/><text fill="#000000" font-family="sans-serif" font-size="12" lengthAdjust="spacing" textLength="106.5586" x="1085.6843" y="794.04">Change Password</text><polygon fill="#F1F1F1" points="1060.8706,724.499,1217.0566,724.499,1229.0566,736.499,1217.0566,748.499,1060.8706,748.499,1048.8706,736.499,1060.8706,724.499" style="stroke:#181818;stroke-width:0.5;"/><text fill="#000000" font-family="sans-serif" font-size="11" lengthAdjust="spacing" textLength="19.2178" x="1142.9636" y="758.7095">Yes</text><text fill="#000000" font-family="sans-serif" font-size="11" lengthAdjust="spacing" textLength="156.186" x="1060.8706" y="740.3071">Wants to Change Password?</text><polygon fill="#F1F1F1" points="1138.9636,831.2725,1150.9636,843.2725,1138.9636,855.2725,1126.9636,843.2725,1138.9636,831.2725" style="stroke:#181818;stroke-width:0.5;"/><rect fill="#F1F1F1" height="33.9688" rx="12.5" ry="12.5" style="stroke:#181818;stroke-width:0.5;" width="147.0664" x="1065.4304" y="881.4365"/><text fill="#000000" font-family="sans-serif" font-size="12" lengthAdjust="spacing" textLength="127.0664" x="1075.4304" y="902.5752">Save Profile Changes</text><polygon fill="#F1F1F1" points="1273.0566,614.8198,1407.8818,614.8198,1419.8818,626.8198,1407.8818,638.8198,1273.0566,638.8198,1261.0566,626.8198,1273.0566,614.8198" style="stroke:#181818;stroke-width:0.5;"/><text fill="#000000" font-family="sans-serif" font-size="11" lengthAdjust="spacing" textLength="19.2178" x="1344.4692" y="649.0303">Yes</text><text fill="#000000" font-family="sans-serif" font-size="11" lengthAdjust="spacing" textLength="134.8252" x="1273.0566" y="630.6279">Selects "Contact Admin"</text><rect fill="#F1F1F1" height="33.9688" rx="12.5" ry="12.5" style="stroke:#181818;stroke-width:0.5;" width="122.0879" x="1279.4253" y="670.5303"/><text fill="#000000" font-family="sans-serif" font-size="12" lengthAdjust="spacing" textLength="102.0879" x="1289.4253" y="691.6689">Fill Contact Form</text><rect fill="#F1F1F1" height="33.9688" rx="12.5" ry="12.5" style="stroke:#181818;stroke-width:0.5;" width="87.3301" x="1296.8042" y="724.499"/><text fill="#000000" font-family="sans-serif" font-size="12" lengthAdjust="spacing" textLength="67.3301" x="1306.8042" y="745.6377">Send Email</text><polygon fill="#F1F1F1" points="1451.8818,614.8198,1624.4175,614.8198,1636.4175,626.8198,1624.4175,638.8198,1451.8818,638.8198,1439.8818,626.8198,1451.8818,614.8198" style="stroke:#181818;stroke-width:0.5;"/><text fill="#000000" font-family="sans-serif" font-size="11" lengthAdjust="spacing" textLength="19.2178" x="1542.1497" y="649.0303">Yes</text><text fill="#000000" font-family="sans-serif" font-size="11" lengthAdjust="spacing" textLength="172.5356" x="1451.8818" y="630.6279">Selects "View Weekly Updates"</text><text fill="#000000" font-family="sans-serif" font-size="11" lengthAdjust="spacing" textLength="14.9585" x="1636.4175" y="624.2256">No</text><rect fill="#F1F1F1" height="33.9688" rx="12.5" ry="12.5" style="stroke:#181818;stroke-width:0.5;" width="181.9824" x="1447.1584" y="670.5303"/><text fill="#000000" font-family="sans-serif" font-size="12" lengthAdjust="spacing" textLength="161.9824" x="1457.1584" y="691.6689">Display Weekly New Books</text><rect fill="#F1F1F1" height="33.9688" rx="12.5" ry="12.5" style="stroke:#181818;stroke-width:0.5;" width="159.582" x="1656.4175" y="787.5811"/><text fill="#000000" font-family="sans-serif" font-size="12" lengthAdjust="spacing" textLength="139.582" x="1666.4175" y="808.7197">Invalid Option Selected</text><polygon fill="#F1F1F1" points="849.7917,559.1094,985.2078,559.1094,997.2078,571.1094,985.2078,583.1094,849.7917,583.1094,837.7917,571.1094,849.7917,559.1094" style="stroke:#181818;stroke-width:0.5;"/><text fill="#000000" font-family="sans-serif" font-size="11" lengthAdjust="spacing" textLength="19.2178" x="921.4998" y="593.3198">Yes</text><text fill="#000000" font-family="sans-serif" font-size="11" lengthAdjust="spacing" textLength="135.416" x="849.7917" y="574.9175">User Navigates Options?</text><rect fill="#F1F1F1" height="33.9688" rx="12.5" ry="12.5" style="stroke:#181818;stroke-width:0.5;" width="61.2969" x="886.8513" y="1025.5693"/><text fill="#000000" font-family="sans-serif" font-size="12" lengthAdjust="spacing" textLength="41.2969" x="896.8513" y="1046.708">Logout</text><ellipse cx="917.4998" cy="1090.5381" fill="none" rx="11" ry="11" style="stroke:#222222;stroke-width:1;"/><ellipse cx="917.4998" cy="1090.5381" fill="#222222" rx="6" ry="6" style="stroke:#222222;stroke-width:1;"/><line style="stroke:#181818;stroke-width:1;" x1="917.4998" x2="917.4998" y1="30" y2="50"/><polygon fill="#181818" points="913.4998,40,917.4998,50,921.4998,40,917.4998,44" style="stroke:#181818;stroke-width:1;"/><line style="stroke:#181818;stroke-width:1;" x1="739.9084" x2="739.9084" y1="171.9375" y2="191.9375"/><polygon fill="#181818" points="735.9084,181.9375,739.9084,191.9375,743.9084,181.9375,739.9084,185.9375" style="stroke:#181818;stroke-width:1;"/><line style="stroke:#181818;stroke-width:1;" x1="816.7795" x2="816.7795" y1="313.875" y2="348.875"/><polygon fill="#181818" points="812.7795,338.875,816.7795,348.875,820.7795,338.875,816.7795,342.875" style="stroke:#181818;stroke-width:1;"/><line style="stroke:#181818;stroke-width:1;" x1="679.2168" x2="663.0374" y1="257.9063" y2="257.9063"/><line style="stroke:#181818;stroke-width:1;" x1="663.0374" x2="663.0374" y1="257.9063" y2="279.9063"/><polygon fill="#181818" points="659.0374,269.9063,663.0374,279.9063,667.0374,269.9063,663.0374,273.9063" style="stroke:#181818;stroke-width:1;"/><line style="stroke:#181818;stroke-width:1;" x1="800.6001" x2="816.7795" y1="257.9063" y2="257.9063"/><line style="stroke:#181818;stroke-width:1;" x1="816.7795" x2="816.7795" y1="257.9063" y2="279.9063"/><polygon fill="#181818" points="812.7795,269.9063,816.7795,279.9063,820.7795,269.9063,816.7795,273.9063" style="stroke:#181818;stroke-width:1;"/><line style="stroke:#181818;stroke-width:1;" x1="663.0374" x2="663.0374" y1="313.875" y2="446.8438"/><line style="stroke:#181818;stroke-width:1;" x1="663.0374" x2="905.4998" y1="446.8438" y2="446.8438"/><polygon fill="#181818" points="895.4998,442.8438,905.4998,446.8438,895.4998,450.8438,899.4998,446.8438" style="stroke:#181818;stroke-width:1;"/><line style="stroke:#181818;stroke-width:1;" x1="739.9084" x2="739.9084" y1="225.9063" y2="245.9063"/><polygon fill="#181818" points="735.9084,235.9063,739.9084,245.9063,743.9084,235.9063,739.9084,239.9063" style="stroke:#181818;stroke-width:1;"/><line style="stroke:#181818;stroke-width:1;" x1="1095.0911" x2="1095.0911" y1="171.9375" y2="191.9375"/><polygon fill="#181818" points="1091.0911,181.9375,1095.0911,191.9375,1099.0911,181.9375,1095.0911,185.9375" style="stroke:#181818;stroke-width:1;"/><line style="stroke:#181818;stroke-width:1;" x1="1095.0911" x2="1095.0911" y1="225.9063" y2="245.9063"/><polygon fill="#181818" points="1091.0911,235.9063,1095.0911,245.9063,1099.0911,235.9063,1095.0911,239.9063" style="stroke:#181818;stroke-width:1;"/><line style="stroke:#181818;stroke-width:1;" x1="1184.262" x2="1184.262" y1="382.8438" y2="402.8438"/><polygon fill="#181818" points="1180.262,392.8438,1184.262,402.8438,1188.262,392.8438,1184.262,396.8438" style="stroke:#181818;stroke-width:1;"/><line style="stroke:#181818;stroke-width:1;" x1="1015.9202" x2="1005.9202" y1="326.875" y2="326.875"/><line style="stroke:#181818;stroke-width:1;" x1="1005.9202" x2="1005.9202" y1="326.875" y2="348.875"/><polygon fill="#181818" points="1001.9202,338.875,1005.9202,348.875,1009.9202,338.875,1005.9202,342.875" style="stroke:#181818;stroke-width:1;"/><line style="stroke:#181818;stroke-width:1;" x1="1174.262" x2="1184.262" y1="326.875" y2="326.875"/><line style="stroke:#181818;stroke-width:1;" x1="1184.262" x2="1184.262" y1="326.875" y2="348.875"/><polygon fill="#181818" points="1180.262,338.875,1184.262,348.875,1188.262,338.875,1184.262,342.875" style="stroke:#181818;stroke-width:1;"/><line style="stroke:#181818;stroke-width:1;" x1="1005.9202" x2="1005.9202" y1="382.8438" y2="446.8438"/><line style="stroke:#181818;stroke-width:1;" x1="1005.9202" x2="929.4998" y1="446.8438" y2="446.8438"/><polygon fill="#181818" points="939.4998,442.8438,929.4998,446.8438,939.4998,450.8438,935.4998,446.8438" style="stroke:#181818;stroke-width:1;"/><line style="stroke:#181818;stroke-width:1;" x1="1095.0911" x2="1095.0911" y1="279.875" y2="314.875"/><polygon fill="#181818" points="1091.0911,304.875,1095.0911,314.875,1099.0911,304.875,1095.0911,308.875" style="stroke:#181818;stroke-width:1;"/><line style="stroke:#181818;stroke-width:1;" x1="850.0137" x2="739.9084" y1="115.9688" y2="115.9688"/><line style="stroke:#181818;stroke-width:1;" x1="739.9084" x2="739.9084" y1="115.9688" y2="137.9688"/><polygon fill="#181818" points="735.9084,127.9688,739.9084,137.9688,743.9084,127.9688,739.9084,131.9688" style="stroke:#181818;stroke-width:1;"/><line style="stroke:#181818;stroke-width:1;" x1="984.9858" x2="1095.0911" y1="115.9688" y2="115.9688"/><line style="stroke:#181818;stroke-width:1;" x1="1095.0911" x2="1095.0911" y1="115.9688" y2="137.9688"/><polygon fill="#181818" points="1091.0911,127.9688,1095.0911,137.9688,1099.0911,127.9688,1095.0911,131.9688" style="stroke:#181818;stroke-width:1;"/><line style="stroke:#181818;stroke-width:1;" x1="917.4998" x2="917.4998" y1="83.9688" y2="103.9688"/><polygon fill="#181818" points="913.4998,93.9688,917.4998,103.9688,921.4998,93.9688,917.4998,97.9688" style="stroke:#181818;stroke-width:1;"/><line style="stroke:#181818;stroke-width:1;" x1="419.9785" x2="419.9785" y1="704.499" y2="724.499"/><polygon fill="#181818" points="415.9785,714.499,419.9785,724.499,423.9785,714.499,419.9785,718.499" style="stroke:#181818;stroke-width:1;"/><line style="stroke:#181818;stroke-width:1;" x1="322.2964" x2="322.2964" y1="861.4365" y2="887.6006"/><polygon fill="#181818" points="318.2964,877.6006,322.2964,887.6006,326.2964,877.6006,322.2964,881.6006" style="stroke:#181818;stroke-width:1;"/><line style="stroke:#181818;stroke-width:1;" x1="379.842" x2="322.2964" y1="805.4678" y2="805.4678"/><line style="stroke:#181818;stroke-width:1;" x1="322.2964" x2="322.2964" y1="805.4678" y2="827.4678"/><polygon fill="#181818" points="318.2964,817.4678,322.2964,827.4678,326.2964,817.4678,322.2964,821.4678" style="stroke:#181818;stroke-width:1;"/><line style="stroke:#181818;stroke-width:1;" x1="460.115" x2="517.6606" y1="805.4678" y2="805.4678"/><line style="stroke:#181818;stroke-width:1;" x1="517.6606" x2="517.6606" y1="805.4678" y2="827.4678"/><polygon fill="#181818" points="513.6606,817.4678,517.6606,827.4678,521.6606,817.4678,517.6606,821.4678" style="stroke:#181818;stroke-width:1;"/><line style="stroke:#181818;stroke-width:1;" x1="322.2964" x2="322.2964" y1="921.5693" y2="939.5693"/><line style="stroke:#181818;stroke-width:1;" x1="322.2964" x2="407.9785" y1="939.5693" y2="939.5693"/><polygon fill="#181818" points="397.9785,935.5693,407.9785,939.5693,397.9785,943.5693,401.9785,939.5693" style="stroke:#181818;stroke-width:1;"/><line style="stroke:#181818;stroke-width:1;" x1="517.6606" x2="517.6606" y1="861.4365" y2="939.5693"/><line style="stroke:#181818;stroke-width:1;" x1="517.6606" x2="431.9785" y1="939.5693" y2="939.5693"/><polygon fill="#181818" points="441.9785,935.5693,431.9785,939.5693,441.9785,943.5693,437.9785,939.5693" style="stroke:#181818;stroke-width:1;"/><line style="stroke:#181818;stroke-width:1;" x1="419.9785" x2="419.9785" y1="758.4678" y2="793.4678"/><polygon fill="#181818" points="415.9785,783.4678,419.9785,793.4678,423.9785,783.4678,419.9785,787.4678" style="stroke:#181818;stroke-width:1;"/><line style="stroke:#181818;stroke-width:1;" x1="829.27" x2="829.27" y1="704.499" y2="724.499"/><polygon fill="#181818" points="825.27,714.499,829.27,724.499,833.27,714.499,829.27,718.499" style="stroke:#181818;stroke-width:1;"/><line style="stroke:#181818;stroke-width:1;" x1="733.0249" x2="733.0249" y1="861.4365" y2="887.6006"/><polygon fill="#181818" points="729.0249,877.6006,733.0249,887.6006,737.0249,877.6006,733.0249,881.6006" style="stroke:#181818;stroke-width:1;"/><line style="stroke:#181818;stroke-width:1;" x1="794.3972" x2="733.0249" y1="805.4678" y2="805.4678"/><line style="stroke:#181818;stroke-width:1;" x1="733.0249" x2="733.0249" y1="805.4678" y2="827.4678"/><polygon fill="#181818" points="729.0249,817.4678,733.0249,827.4678,737.0249,817.4678,733.0249,821.4678" style="stroke:#181818;stroke-width:1;"/><line style="stroke:#181818;stroke-width:1;" x1="864.1428" x2="925.5151" y1="805.4678" y2="805.4678"/><line style="stroke:#181818;stroke-width:1;" x1="925.5151" x2="925.5151" y1="805.4678" y2="827.4678"/><polygon fill="#181818" points="921.5151,817.4678,925.5151,827.4678,929.5151,817.4678,925.5151,821.4678" style="stroke:#181818;stroke-width:1;"/><line style="stroke:#181818;stroke-width:1;" x1="733.0249" x2="733.0249" y1="921.5693" y2="939.5693"/><line style="stroke:#181818;stroke-width:1;" x1="733.0249" x2="817.27" y1="939.5693" y2="939.5693"/><polygon fill="#181818" points="807.27,935.5693,817.27,939.5693,807.27,943.5693,811.27,939.5693" style="stroke:#181818;stroke-width:1;"/><line style="stroke:#181818;stroke-width:1;" x1="925.5151" x2="925.5151" y1="861.4365" y2="939.5693"/><line style="stroke:#181818;stroke-width:1;" x1="925.5151" x2="841.27" y1="939.5693" y2="939.5693"/><polygon fill="#181818" points="851.27,935.5693,841.27,939.5693,851.27,943.5693,847.27,939.5693" style="stroke:#181818;stroke-width:1;"/><line style="stroke:#181818;stroke-width:1;" x1="829.27" x2="829.27" y1="758.4678" y2="793.4678"/><polygon fill="#181818" points="825.27,783.4678,829.27,793.4678,833.27,783.4678,829.27,787.4678" style="stroke:#181818;stroke-width:1;"/><line style="stroke:#181818;stroke-width:1;" x1="1138.9636" x2="1138.9636" y1="748.499" y2="772.9014"/><polygon fill="#181818" points="1134.9636,762.9014,1138.9636,772.9014,1142.9636,762.9014,1138.9636,766.9014" style="stroke:#181818;stroke-width:1;"/><line style="stroke:#181818;stroke-width:1;" x1="1229.0566" x2="1241.0566" y1="736.499" y2="736.499"/><polygon fill="#181818" points="1237.0566,779.8857,1241.0566,789.8857,1245.0566,779.8857,1241.0566,783.8857" style="stroke:#181818;stroke-width:1;"/><line style="stroke:#181818;stroke-width:1;" x1="1241.0566" x2="1241.0566" y1="736.499" y2="843.2725"/><line style="stroke:#181818;stroke-width:1;" x1="1241.0566" x2="1150.9636" y1="843.2725" y2="843.2725"/><polygon fill="#181818" points="1160.9636,839.2725,1150.9636,843.2725,1160.9636,847.2725,1156.9636,843.2725" style="stroke:#181818;stroke-width:1;"/><line style="stroke:#181818;stroke-width:1;" x1="1138.9636" x2="1138.9636" y1="806.8701" y2="831.2725"/><polygon fill="#181818" points="1134.9636,821.2725,1138.9636,831.2725,1142.9636,821.2725,1138.9636,825.2725" style="stroke:#181818;stroke-width:1;"/><line style="stroke:#181818;stroke-width:1;" x1="1138.9636" x2="1138.9636" y1="704.499" y2="724.499"/><polygon fill="#181818" points="1134.9636,714.499,1138.9636,724.499,1142.9636,714.499,1138.9636,718.499" style="stroke:#181818;stroke-width:1;"/><line style="stroke:#181818;stroke-width:1;" x1="1138.9636" x2="1138.9636" y1="855.2725" y2="881.4365"/><polygon fill="#181818" points="1134.9636,871.4365,1138.9636,881.4365,1142.9636,871.4365,1138.9636,875.4365" style="stroke:#181818;stroke-width:1;"/><line style="stroke:#181818;stroke-width:1;" x1="1340.4692" x2="1340.4692" y1="704.499" y2="724.499"/><polygon fill="#181818" points="1336.4692,714.499,1340.4692,724.499,1344.4692,714.499,1340.4692,718.499" style="stroke:#181818;stroke-width:1;"/><line style="stroke:#181818;stroke-width:1;" x1="136.0808" x2="136.0808" y1="638.8198" y2="670.5303"/><polygon fill="#181818" points="132.0808,660.5303,136.0808,670.5303,140.0808,660.5303,136.0808,664.5303" style="stroke:#181818;stroke-width:1;"/><line style="stroke:#181818;stroke-width:1;" x1="136.0808" x2="136.0808" y1="704.499" y2="971.5693"/><polygon fill="#181818" points="132.0808,961.5693,136.0808,971.5693,140.0808,961.5693,136.0808,965.5693" style="stroke:#181818;stroke-width:1;"/><line style="stroke:#181818;stroke-width:1;" x1="419.9785" x2="419.9785" y1="638.8198" y2="670.5303"/><polygon fill="#181818" points="415.9785,660.5303,419.9785,670.5303,423.9785,660.5303,419.9785,664.5303" style="stroke:#181818;stroke-width:1;"/><line style="stroke:#181818;stroke-width:1;" x1="419.9785" x2="419.9785" y1="951.5693" y2="971.5693"/><polygon fill="#181818" points="415.9785,961.5693,419.9785,971.5693,423.9785,961.5693,419.9785,965.5693" style="stroke:#181818;stroke-width:1;"/><line style="stroke:#181818;stroke-width:1;" x1="829.27" x2="829.27" y1="638.8198" y2="670.5303"/><polygon fill="#181818" points="825.27,660.5303,829.27,670.5303,833.27,660.5303,829.27,664.5303" style="stroke:#181818;stroke-width:1;"/><line style="stroke:#181818;stroke-width:1;" x1="829.27" x2="829.27" y1="951.5693" y2="971.5693"/><polygon fill="#181818" points="825.27,961.5693,829.27,971.5693,833.27,961.5693,829.27,965.5693" style="stroke:#181818;stroke-width:1;"/><line style="stroke:#181818;stroke-width:1;" x1="1138.9636" x2="1138.9636" y1="638.8198" y2="670.5303"/><polygon fill="#181818" points="1134.9636,660.5303,1138.9636,670.5303,1142.9636,660.5303,1138.9636,664.5303" style="stroke:#181818;stroke-width:1;"/><line style="stroke:#181818;stroke-width:1;" x1="1138.9636" x2="1138.9636" y1="915.4053" y2="971.5693"/><polygon fill="#181818" points="1134.9636,961.5693,1138.9636,971.5693,1142.9636,961.5693,1138.9636,965.5693" style="stroke:#181818;stroke-width:1;"/><line style="stroke:#181818;stroke-width:1;" x1="1340.4692" x2="1340.4692" y1="638.8198" y2="670.5303"/><polygon fill="#181818" points="1336.4692,660.5303,1340.4692,670.5303,1344.4692,660.5303,1340.4692,664.5303" style="stroke:#181818;stroke-width:1;"/><line style="stroke:#181818;stroke-width:1;" x1="1340.4692" x2="1340.4692" y1="758.4678" y2="971.5693"/><polygon fill="#181818" points="1336.4692,961.5693,1340.4692,971.5693,1344.4692,961.5693,1340.4692,965.5693" style="stroke:#181818;stroke-width:1;"/><line style="stroke:#181818;stroke-width:1;" x1="1538.1497" x2="1538.1497" y1="638.8198" y2="670.5303"/><polygon fill="#181818" points="1534.1497,660.5303,1538.1497,670.5303,1542.1497,660.5303,1538.1497,664.5303" style="stroke:#181818;stroke-width:1;"/><line style="stroke:#181818;stroke-width:1;" x1="1538.1497" x2="1538.1497" y1="704.499" y2="971.5693"/><polygon fill="#181818" points="1534.1497,961.5693,1538.1497,971.5693,1542.1497,961.5693,1538.1497,965.5693" style="stroke:#181818;stroke-width:1;"/><line style="stroke:#181818;stroke-width:1;" x1="233.1616" x2="353.0537" y1="626.8198" y2="626.8198"/><polygon fill="#181818" points="343.0537,622.8198,353.0537,626.8198,343.0537,630.8198,347.0537,626.8198" style="stroke:#181818;stroke-width:1;"/><line style="stroke:#181818;stroke-width:1;" x1="486.9033" x2="756.5981" y1="626.8198" y2="626.8198"/><polygon fill="#181818" points="746.5981,622.8198,756.5981,626.8198,746.5981,630.8198,750.5981,626.8198" style="stroke:#181818;stroke-width:1;"/><line style="stroke:#181818;stroke-width:1;" x1="901.9419" x2="1061.3369" y1="626.8198" y2="626.8198"/><polygon fill="#181818" points="1051.3369,622.8198,1061.3369,626.8198,1051.3369,630.8198,1055.3369,626.8198" style="stroke:#181818;stroke-width:1;"/><line style="stroke:#181818;stroke-width:1;" x1="1216.5903" x2="1261.0566" y1="626.8198" y2="626.8198"/><polygon fill="#181818" points="1251.0566,622.8198,1261.0566,626.8198,1251.0566,630.8198,1255.0566,626.8198" style="stroke:#181818;stroke-width:1;"/><line style="stroke:#181818;stroke-width:1;" x1="1419.8818" x2="1439.8818" y1="626.8198" y2="626.8198"/><polygon fill="#181818" points="1429.8818,622.8198,1439.8818,626.8198,1429.8818,630.8198,1433.8818,626.8198" style="stroke:#181818;stroke-width:1;"/><line style="stroke:#181818;stroke-width:1;" x1="917.4998" x2="917.4998" y1="583.1094" y2="599.8198"/><line style="stroke:#181818;stroke-width:1;" x1="917.4998" x2="136.0808" y1="599.8198" y2="599.8198"/><line style="stroke:#181818;stroke-width:1;" x1="136.0808" x2="136.0808" y1="599.8198" y2="614.8198"/><polygon fill="#181818" points="132.0808,604.8198,136.0808,614.8198,140.0808,604.8198,136.0808,608.8198" style="stroke:#181818;stroke-width:1;"/><line style="stroke:#181818;stroke-width:1;" x1="1636.4175" x2="1736.2085" y1="626.8198" y2="626.8198"/><line style="stroke:#181818;stroke-width:1;" x1="1736.2085" x2="1736.2085" y1="626.8198" y2="787.5811"/><polygon fill="#181818" points="1732.2085,777.5811,1736.2085,787.5811,1740.2085,777.5811,1736.2085,781.5811" style="stroke:#181818;stroke-width:1;"/><line style="stroke:#181818;stroke-width:1;" x1="1736.2085" x2="1736.2085" y1="821.5498" y2="971.5693"/><polygon fill="#181818" points="1732.2085,961.5693,1736.2085,971.5693,1740.2085,961.5693,1736.2085,965.5693" style="stroke:#181818;stroke-width:1;"/><line style="stroke:#181818;stroke-width:1;" x1="136.0808" x2="1736.2085" y1="971.5693" y2="971.5693"/><line style="stroke:#181818;stroke-width:1;" x1="917.4998" x2="917.4998" y1="971.5693" y2="981.5693"/><line style="stroke:#181818;stroke-width:1;" x1="917.4998" x2="1827.9995" y1="981.5693" y2="981.5693"/><polygon fill="#181818" points="1823.9995,796.1631,1827.9995,786.1631,1831.9995,796.1631,1827.9995,792.1631" style="stroke:#181818;stroke-width:1;"/><line style="stroke:#181818;stroke-width:1;" x1="1827.9995" x2="1827.9995" y1="571.1094" y2="981.5693"/><line style="stroke:#181818;stroke-width:1;" x1="1827.9995" x2="997.2078" y1="571.1094" y2="571.1094"/><polygon fill="#181818" points="1007.2078,567.1094,997.2078,571.1094,1007.2078,575.1094,1003.2078,571.1094" style="stroke:#181818;stroke-width:1;"/><line style="stroke:#181818;stroke-width:1;" x1="837.7917" x2="27" y1="571.1094" y2="571.1094"/><polygon fill="#181818" points="23,782.1631,27,792.1631,31,782.1631,27,786.1631" style="stroke:#181818;stroke-width:1;"/><line style="stroke:#181818;stroke-width:1;" x1="27" x2="27" y1="571.1094" y2="993.5693"/><line style="stroke:#181818;stroke-width:1;" x1="27" x2="917.4998" y1="993.5693" y2="993.5693"/><line style="stroke:#181818;stroke-width:1;" x1="917.4998" x2="917.4998" y1="993.5693" y2="1025.5693"/><polygon fill="#181818" points="913.4998,1015.5693,917.4998,1025.5693,921.4998,1015.5693,917.4998,1019.5693" style="stroke:#181818;stroke-width:1;"/><line style="stroke:#181818;stroke-width:1;" x1="917.4998" x2="917.4998" y1="539.1094" y2="559.1094"/><polygon fill="#181818" points="913.4998,549.1094,917.4998,559.1094,921.4998,549.1094,917.4998,553.1094" style="stroke:#181818;stroke-width:1;"/><line style="stroke:#181818;stroke-width:1;" x1="917.4998" x2="917.4998" y1="458.8438" y2="505.1406"/><polygon fill="#181818" points="913.4998,495.1406,917.4998,505.1406,921.4998,495.1406,917.4998,499.1406" style="stroke:#181818;stroke-width:1;"/><line style="stroke:#181818;stroke-width:1;" x1="917.4998" x2="917.4998" y1="1059.5381" y2="1079.5381"/><polygon fill="#181818" points="913.4998,1069.5381,917.4998,1079.5381,921.4998,1069.5381,917.4998,1073.5381" style="stroke:#181818;stroke-width:1;"/><!--SRC=[hLLDRzf04BtxLuoub1po1-0GKI1jf9GW48bwtDW3Z5XshTq5P5NzxvtTDHZ7u12fFjX8y-RZlVd0Ec5Sqdl9KS7eQG7Fz6w4AM2gZHEodoIqXEv06XHP0JDSaNLeC7ku0xTcb-vlj7S9yDCRAxR0mg9HOeiWL0PJOUr1cwmV4Qz2KYOSmf0Ze78af8qcd-HPhqZ1V9UcQEro9vifGf0V6fo6dvfJJCKAepzAYz2Tw3FSVAqFC3P66_Z50KzG_rYdy-YdCbecTUyoG-HgX2EjpZBr7adAkl5Hc-r7XZN0I3XHyQoPFgKxmumCfiwN51NwRwp3E_a6z_VtbPumI1tjoH5QRqXo7WyAfNPyQmEm0tyYtH7PN8eYUh_a7bOszB0coRK5budOquf5iKS8KoNxWQXNPewIcLhel18UOB0N9CKxX_ckzSPsBkfJAyFZU82jgpXxYMgXPpnt0TWIBu83gb-t3DUORcAUiZoIv8ewAcpCiVY7gsbYGAsMPBRWo-etpOkyd2R5oyYVb9V9rd7D8QWFmqIxCoaRGr7DGujaRcVKZQB5KY_ALiOPIrhHDTsYyGko-P3NXGkTUb9xBagRucl27Skzl4mtw5RMC3LwoSlG8jqu8tU4mGWTDyisfNaJYgFo6HYkXLhXwRX-9bKTtSOWSXVxKyrbAjkoJzm99xZlWsnBgeLZE9j7S7KnpyQ7_o_6MwRUaYpSXJV4ZImWgdlBMIWT9kmRBaazGNC4UZmm_ewNvmfYUZoJhfADVuLJb_nDaXxVPxtZDVQ7zXy0]--></g></svg>