<svg xmlns="http://www.w3.org/2000/svg" xmlns:xlink="http://www.w3.org/1999/xlink" contentStyleType="text/css" data-diagram-type="CLASS" height="2846.875px" preserveAspectRatio="none" style="width:1846px;height:2846px;background:#FFFFFF;" version="1.1" viewBox="0 0 1846 2846" width="1846.875px" zoomAndPan="magnify"><defs/><g><!--class User--><g class="entity" data-entity="User" data-source-line="12" data-uid="ent0002" id="entity_User"><rect fill="#FFFFFF" height="754.8828" rx="7.8125" ry="7.8125" style="stroke:#000000;stroke-width:1.5625;" width="672.8882" x="140.7188" y="21.875"/><ellipse cx="421.926" cy="68.75" fill="#C2C2C2" rx="31.25" ry="31.25" style="stroke:#181818;stroke-width:3.125;"/><path d="M427.6389,82.0313 Q426.3694,82.666 424.9534,83.0078 Q423.5374,83.3496 422.0237,83.3496 Q416.4573,83.3496 413.5276,79.7363 Q410.6467,76.0742 410.6467,69.1895 Q410.6467,62.2559 413.5276,58.6426 Q416.4573,54.9805 422.0237,54.9805 Q423.5374,54.9805 424.9534,55.3223 Q426.4182,55.6152 427.6389,56.2988 L427.6389,62.3047 Q426.2717,61.0352 424.9534,60.4492 Q423.635,59.8145 422.2678,59.8145 Q419.2893,59.8145 417.7756,62.207 Q416.262,64.5508 416.262,69.1895 Q416.262,73.7793 417.7756,76.123 Q419.2893,78.4668 422.2678,78.4668 Q423.635,78.4668 424.9534,77.8809 Q426.2717,77.2949 427.6389,76.0254 L427.6389,82.0313 Z " fill="#000000"/><text fill="#000000" font-family="sans-serif" font-size="37.5" lengthAdjust="spacing" textLength="85.4736" x="481.301" y="81.7322">User</text><line style="stroke:#000000;stroke-width:1.5625;" x1="143.8438" x2="810.4819" y1="115.625" y2="115.625"/><rect fill="none" height="18.75" style="stroke:#595959;stroke-width:3.125;" width="18.75" x="165.7188" y="145.2637"/><text fill="#000000" font-family="sans-serif" font-size="37.5" lengthAdjust="spacing" textLength="190.1001" x="200.0938" y="162.9333">userId: int</text><rect fill="none" height="18.75" style="stroke:#595959;stroke-width:3.125;" width="18.75" x="165.7188" y="188.916"/><text fill="#000000" font-family="sans-serif" font-size="37.5" lengthAdjust="spacing" textLength="324.6094" x="200.0938" y="206.5857">username: String</text><rect fill="none" height="18.75" style="stroke:#595959;stroke-width:3.125;" width="18.75" x="165.7188" y="232.5684"/><text fill="#000000" font-family="sans-serif" font-size="37.5" lengthAdjust="spacing" textLength="239.8865" x="200.0938" y="250.238">email: String</text><rect fill="none" height="18.75" style="stroke:#595959;stroke-width:3.125;" width="18.75" x="165.7188" y="276.2207"/><text fill="#000000" font-family="sans-serif" font-size="37.5" lengthAdjust="spacing" textLength="284.6191" x="200.0938" y="293.8904">address: String</text><rect fill="none" height="18.75" style="stroke:#595959;stroke-width:3.125;" width="18.75" x="165.7188" y="319.873"/><text fill="#000000" font-family="sans-serif" font-size="37.5" lengthAdjust="spacing" textLength="315.1611" x="200.0938" y="337.5427">password: String</text><line style="stroke:#000000;stroke-width:1.5625;" x1="143.8438" x2="810.4819" y1="358.8867" y2="358.8867"/><ellipse cx="175.0938" cy="397.9004" fill="#A6A6A6" rx="9.375" ry="9.375" style="stroke:#545454;stroke-width:3.125;"/><text fill="#000000" font-family="sans-serif" font-size="37.5" lengthAdjust="spacing" textLength="174.7009" x="200.0938" y="406.1951">register()</text><ellipse cx="175.0938" cy="441.5527" fill="#A6A6A6" rx="9.375" ry="9.375" style="stroke:#545454;stroke-width:3.125;"/><text fill="#000000" font-family="sans-serif" font-size="37.5" lengthAdjust="spacing" textLength="120.6116" x="200.0938" y="449.8474">login()</text><ellipse cx="175.0938" cy="485.2051" fill="#A6A6A6" rx="9.375" ry="9.375" style="stroke:#545454;stroke-width:3.125;"/><text fill="#000000" font-family="sans-serif" font-size="37.5" lengthAdjust="spacing" textLength="318.8232" x="200.0938" y="493.4998">viewHomePage()</text><ellipse cx="175.0938" cy="528.8574" fill="#A6A6A6" rx="9.375" ry="9.375" style="stroke:#545454;stroke-width:3.125;"/><text fill="#000000" font-family="sans-serif" font-size="37.5" lengthAdjust="spacing" textLength="400.415" x="200.0938" y="537.1521">viewAvailableBooks()</text><ellipse cx="175.0938" cy="572.5098" fill="#A6A6A6" rx="9.375" ry="9.375" style="stroke:#545454;stroke-width:3.125;"/><text fill="#000000" font-family="sans-serif" font-size="37.5" lengthAdjust="spacing" textLength="399.2615" x="200.0938" y="580.8044">rentBook(bookId: int)</text><ellipse cx="175.0938" cy="616.1621" fill="#A6A6A6" rx="9.375" ry="9.375" style="stroke:#545454;stroke-width:3.125;"/><text fill="#000000" font-family="sans-serif" font-size="37.5" lengthAdjust="spacing" textLength="279.4739" x="200.0938" y="624.4568">updateProfile()</text><ellipse cx="175.0938" cy="659.8145" fill="#A6A6A6" rx="9.375" ry="9.375" style="stroke:#545454;stroke-width:3.125;"/><text fill="#000000" font-family="sans-serif" font-size="37.5" lengthAdjust="spacing" textLength="594.7632" x="200.0938" y="668.1091">contactAdmin(message: String)</text><ellipse cx="175.0938" cy="703.4668" fill="#A6A6A6" rx="9.375" ry="9.375" style="stroke:#545454;stroke-width:3.125;"/><text fill="#000000" font-family="sans-serif" font-size="37.5" lengthAdjust="spacing" textLength="408.5083" x="200.0938" y="711.7615">viewWeeklyUpdates()</text><ellipse cx="175.0938" cy="747.1191" fill="#A6A6A6" rx="9.375" ry="9.375" style="stroke:#545454;stroke-width:3.125;"/><text fill="#000000" font-family="sans-serif" font-size="37.5" lengthAdjust="spacing" textLength="147.8394" x="200.0938" y="755.4138">logout()</text></g><!--class Admin--><g class="entity" data-entity="Admin" data-source-line="29" data-uid="ent0003" id="entity_Admin"><rect fill="#FFFFFF" height="492.9688" rx="7.8125" ry="7.8125" style="stroke:#000000;stroke-width:1.5625;" width="462.6465" x="1039.5938" y="1011.1562"/><ellipse cx="1198.3309" cy="1058.0312" fill="#C2C2C2" rx="31.25" ry="31.25" style="stroke:#181818;stroke-width:3.125;"/><path d="M1204.0438,1071.3125 Q1202.7743,1071.9473 1201.3583,1072.2891 Q1199.9423,1072.6309 1198.4286,1072.6309 Q1192.8622,1072.6309 1189.9325,1069.0176 Q1187.0516,1065.3555 1187.0516,1058.4707 Q1187.0516,1051.5371 1189.9325,1047.9238 Q1192.8622,1044.2617 1198.4286,1044.2617 Q1199.9423,1044.2617 1201.3583,1044.6035 Q1202.8231,1044.8965 1204.0438,1045.5801 L1204.0438,1051.5859 Q1202.6766,1050.3164 1201.3583,1049.7305 Q1200.0399,1049.0957 1198.6727,1049.0957 Q1195.6942,1049.0957 1194.1805,1051.4883 Q1192.6669,1053.832 1192.6669,1058.4707 Q1192.6669,1063.0605 1194.1805,1065.4043 Q1195.6942,1067.748 1198.6727,1067.748 Q1200.0399,1067.748 1201.3583,1067.1621 Q1202.6766,1066.5762 1204.0438,1065.3066 L1204.0438,1071.3125 Z " fill="#000000"/><text fill="#000000" font-family="sans-serif" font-size="37.5" lengthAdjust="spacing" textLength="120.1721" x="1257.7059" y="1071.0134">Admin</text><line style="stroke:#000000;stroke-width:1.5625;" x1="1042.7188" x2="1499.1152" y1="1104.9062" y2="1104.9062"/><rect fill="none" height="18.75" style="stroke:#595959;stroke-width:3.125;" width="18.75" x="1064.5938" y="1134.5449"/><text fill="#000000" font-family="sans-serif" font-size="37.5" lengthAdjust="spacing" textLength="225.8057" x="1098.9688" y="1152.2146">adminId: int</text><rect fill="none" height="18.75" style="stroke:#595959;stroke-width:3.125;" width="18.75" x="1064.5938" y="1178.1973"/><text fill="#000000" font-family="sans-serif" font-size="37.5" lengthAdjust="spacing" textLength="324.6094" x="1098.9688" y="1195.8669">username: String</text><rect fill="none" height="18.75" style="stroke:#595959;stroke-width:3.125;" width="18.75" x="1064.5938" y="1221.8496"/><text fill="#000000" font-family="sans-serif" font-size="37.5" lengthAdjust="spacing" textLength="315.1611" x="1098.9688" y="1239.5193">password: String</text><line style="stroke:#000000;stroke-width:1.5625;" x1="1042.7188" x2="1499.1152" y1="1260.8633" y2="1260.8633"/><ellipse cx="1073.9688" cy="1299.877" fill="#A6A6A6" rx="9.375" ry="9.375" style="stroke:#545454;stroke-width:3.125;"/><text fill="#000000" font-family="sans-serif" font-size="37.5" lengthAdjust="spacing" textLength="120.6116" x="1098.9688" y="1308.1716">login()</text><ellipse cx="1073.9688" cy="1343.5293" fill="#A6A6A6" rx="9.375" ry="9.375" style="stroke:#545454;stroke-width:3.125;"/><text fill="#000000" font-family="sans-serif" font-size="37.5" lengthAdjust="spacing" textLength="384.5215" x="1098.9688" y="1351.824">manageCategories()</text><ellipse cx="1073.9688" cy="1387.1816" fill="#A6A6A6" rx="9.375" ry="9.375" style="stroke:#545454;stroke-width:3.125;"/><text fill="#000000" font-family="sans-serif" font-size="37.5" lengthAdjust="spacing" textLength="295.2576" x="1098.9688" y="1395.4763">manageBooks()</text><ellipse cx="1073.9688" cy="1430.834" fill="#A6A6A6" rx="9.375" ry="9.375" style="stroke:#545454;stroke-width:3.125;"/><text fill="#000000" font-family="sans-serif" font-size="37.5" lengthAdjust="spacing" textLength="289.3982" x="1098.9688" y="1439.1287">viewMembers()</text><ellipse cx="1073.9688" cy="1474.4863" fill="#A6A6A6" rx="9.375" ry="9.375" style="stroke:#545454;stroke-width:3.125;"/><text fill="#000000" font-family="sans-serif" font-size="37.5" lengthAdjust="spacing" textLength="147.8394" x="1098.9688" y="1482.781">logout()</text></g><!--class Book--><g class="entity" data-entity="Book" data-source-line="40" data-uid="ent0004" id="entity_Book"><rect fill="#FFFFFF" height="492.9688" rx="7.8125" ry="7.8125" style="stroke:#000000;stroke-width:1.5625;" width="483.7585" x="288.4063" y="1738.5"/><ellipse cx="471.1211" cy="1785.375" fill="#C2C2C2" rx="31.25" ry="31.25" style="stroke:#181818;stroke-width:3.125;"/><path d="M476.834,1798.6563 Q475.5645,1799.291 474.1484,1799.6328 Q472.7324,1799.9746 471.2188,1799.9746 Q465.6523,1799.9746 462.7227,1796.3613 Q459.8418,1792.6992 459.8418,1785.8145 Q459.8418,1778.8809 462.7227,1775.2676 Q465.6523,1771.6055 471.2188,1771.6055 Q472.7324,1771.6055 474.1484,1771.9473 Q475.6133,1772.2402 476.834,1772.9238 L476.834,1778.9297 Q475.4668,1777.6602 474.1484,1777.0742 Q472.8301,1776.4395 471.4629,1776.4395 Q468.4844,1776.4395 466.9707,1778.832 Q465.457,1781.1758 465.457,1785.8145 Q465.457,1790.4043 466.9707,1792.748 Q468.4844,1795.0918 471.4629,1795.0918 Q472.8301,1795.0918 474.1484,1794.5059 Q475.4668,1793.9199 476.834,1792.6504 L476.834,1798.6563 Z " fill="#000000"/><text fill="#000000" font-family="sans-serif" font-size="37.5" lengthAdjust="spacing" textLength="93.3289" x="530.4961" y="1798.3572">Book</text><line style="stroke:#000000;stroke-width:1.5625;" x1="291.5313" x2="769.0398" y1="1832.25" y2="1832.25"/><rect fill="none" height="18.75" style="stroke:#595959;stroke-width:3.125;" width="18.75" x="313.4063" y="1861.8887"/><text fill="#000000" font-family="sans-serif" font-size="37.5" lengthAdjust="spacing" textLength="199.7131" x="347.7813" y="1879.5583">bookId: int</text><rect fill="none" height="18.75" style="stroke:#595959;stroke-width:3.125;" width="18.75" x="313.4063" y="1905.541"/><text fill="#000000" font-family="sans-serif" font-size="37.5" lengthAdjust="spacing" textLength="209.7839" x="347.7813" y="1923.2107">title: String</text><rect fill="none" height="18.75" style="stroke:#595959;stroke-width:3.125;" width="18.75" x="313.4063" y="1949.1934"/><text fill="#000000" font-family="sans-serif" font-size="37.5" lengthAdjust="spacing" textLength="302.1973" x="347.7813" y="1966.863">category: String</text><rect fill="none" height="18.75" style="stroke:#595959;stroke-width:3.125;" width="18.75" x="313.4063" y="1992.8457"/><text fill="#000000" font-family="sans-serif" font-size="37.5" lengthAdjust="spacing" textLength="229.7791" x="347.7813" y="2010.5154">quantity: int</text><rect fill="none" height="18.75" style="stroke:#595959;stroke-width:3.125;" width="18.75" x="313.4063" y="2036.498"/><text fill="#000000" font-family="sans-serif" font-size="37.5" lengthAdjust="spacing" textLength="245.6909" x="347.7813" y="2054.1677">price: double</text><rect fill="none" height="18.75" style="stroke:#595959;stroke-width:3.125;" width="18.75" x="313.4063" y="2080.1504"/><text fill="#000000" font-family="sans-serif" font-size="37.5" lengthAdjust="spacing" textLength="278.7964" x="347.7813" y="2097.8201">weight: double</text><rect fill="none" height="18.75" style="stroke:#595959;stroke-width:3.125;" width="18.75" x="313.4063" y="2123.8027"/><text fill="#000000" font-family="sans-serif" font-size="37.5" lengthAdjust="spacing" textLength="344.9707" x="347.7813" y="2141.4724">description: String</text><line style="stroke:#000000;stroke-width:1.5625;" x1="291.5313" x2="769.0398" y1="2162.8164" y2="2162.8164"/><ellipse cx="322.7813" cy="2201.8301" fill="#A6A6A6" rx="9.375" ry="9.375" style="stroke:#545454;stroke-width:3.125;"/><text fill="#000000" font-family="sans-serif" font-size="37.5" lengthAdjust="spacing" textLength="405.6335" x="347.7813" y="2210.1248">isAvailable(): boolean</text></g><!--class Category--><g class="entity" data-entity="Category" data-source-line="51" data-uid="ent0005" id="entity_Category"><rect fill="#FFFFFF" height="362.0117" rx="7.8125" ry="7.8125" style="stroke:#000000;stroke-width:1.5625;" width="410.8093" x="556.125" y="2465.8438"/><ellipse cx="665.4689" cy="2512.7188" fill="#C2C2C2" rx="31.25" ry="31.25" style="stroke:#181818;stroke-width:3.125;"/><path d="M671.1818,2526 Q669.9122,2526.6348 668.4962,2526.9766 Q667.0802,2527.3184 665.5665,2527.3184 Q660.0001,2527.3184 657.0704,2523.7051 Q654.1896,2520.043 654.1896,2513.1582 Q654.1896,2506.2246 657.0704,2502.6113 Q660.0001,2498.9492 665.5665,2498.9492 Q667.0802,2498.9492 668.4962,2499.291 Q669.9611,2499.584 671.1818,2500.2676 L671.1818,2506.2734 Q669.8146,2505.0039 668.4962,2504.418 Q667.1779,2503.7832 665.8107,2503.7832 Q662.8322,2503.7832 661.3185,2506.1758 Q659.8048,2508.5195 659.8048,2513.1582 Q659.8048,2517.748 661.3185,2520.0918 Q662.8322,2522.4355 665.8107,2522.4355 Q667.1779,2522.4355 668.4962,2521.8496 Q669.8146,2521.2637 671.1818,2519.9941 L671.1818,2526 Z " fill="#000000"/><text fill="#000000" font-family="sans-serif" font-size="37.5" lengthAdjust="spacing" textLength="171.2952" x="720.6703" y="2525.7009">Category</text><line style="stroke:#000000;stroke-width:1.5625;" x1="559.25" x2="963.8093" y1="2559.5938" y2="2559.5938"/><rect fill="none" height="18.75" style="stroke:#595959;stroke-width:3.125;" width="18.75" x="581.125" y="2589.2324"/><text fill="#000000" font-family="sans-serif" font-size="37.5" lengthAdjust="spacing" textLength="274.0356" x="615.5" y="2606.9021">categoryId: int</text><rect fill="none" height="18.75" style="stroke:#595959;stroke-width:3.125;" width="18.75" x="581.125" y="2632.8848"/><text fill="#000000" font-family="sans-serif" font-size="37.5" lengthAdjust="spacing" textLength="242.8162" x="615.5" y="2650.5544">name: String</text><line style="stroke:#000000;stroke-width:1.5625;" x1="559.25" x2="963.8093" y1="2671.8984" y2="2671.8984"/><ellipse cx="590.5" cy="2710.9121" fill="#A6A6A6" rx="9.375" ry="9.375" style="stroke:#545454;stroke-width:3.125;"/><text fill="#000000" font-family="sans-serif" font-size="37.5" lengthAdjust="spacing" textLength="271.1426" x="615.5" y="2719.2068">addCategory()</text><ellipse cx="590.5" cy="2754.5645" fill="#A6A6A6" rx="9.375" ry="9.375" style="stroke:#545454;stroke-width:3.125;"/><text fill="#000000" font-family="sans-serif" font-size="37.5" lengthAdjust="spacing" textLength="318.6951" x="615.5" y="2762.8591">deleteCategory()</text><ellipse cx="590.5" cy="2798.2168" fill="#A6A6A6" rx="9.375" ry="9.375" style="stroke:#545454;stroke-width:3.125;"/><text fill="#000000" font-family="sans-serif" font-size="37.5" lengthAdjust="spacing" textLength="332.6843" x="615.5" y="2806.5115">updateCategory()</text></g><!--class Rental--><g class="entity" data-entity="Rental" data-source-line="59" data-uid="ent0006" id="entity_Rental"><rect fill="#FFFFFF" height="449.3164" rx="7.8125" ry="7.8125" style="stroke:#000000;stroke-width:1.5625;" width="398.0835" x="21.875" y="1032.9687"/><ellipse cx="148.1268" cy="1079.8437" fill="#C2C2C2" rx="31.25" ry="31.25" style="stroke:#181818;stroke-width:3.125;"/><path d="M153.8397,1093.125 Q152.5702,1093.7598 151.1542,1094.1016 Q149.7382,1094.4434 148.2245,1094.4434 Q142.6581,1094.4434 139.7284,1090.8301 Q136.8475,1087.168 136.8475,1080.2832 Q136.8475,1073.3496 139.7284,1069.7363 Q142.6581,1066.0742 148.2245,1066.0742 Q149.7382,1066.0742 151.1542,1066.416 Q152.619,1066.709 153.8397,1067.3926 L153.8397,1073.3984 Q152.4725,1072.1289 151.1542,1071.543 Q149.8358,1070.9082 148.4686,1070.9082 Q145.4901,1070.9082 143.9764,1073.3008 Q142.4628,1075.6445 142.4628,1080.2832 Q142.4628,1084.873 143.9764,1087.2168 Q145.4901,1089.5605 148.4686,1089.5605 Q149.8358,1089.5605 151.1542,1088.9746 Q152.4725,1088.3887 153.8397,1087.1191 L153.8397,1093.125 Z " fill="#000000"/><text fill="#000000" font-family="sans-serif" font-size="37.5" lengthAdjust="spacing" textLength="120.9961" x="207.0856" y="1092.8259">Rental</text><line style="stroke:#000000;stroke-width:1.5625;" x1="25" x2="416.8335" y1="1126.7187" y2="1126.7187"/><rect fill="none" height="18.75" style="stroke:#595959;stroke-width:3.125;" width="18.75" x="46.875" y="1156.3574"/><text fill="#000000" font-family="sans-serif" font-size="37.5" lengthAdjust="spacing" textLength="218.6646" x="81.25" y="1174.0271">rentalId: int</text><rect fill="none" height="18.75" style="stroke:#595959;stroke-width:3.125;" width="18.75" x="46.875" y="1200.0098"/><text fill="#000000" font-family="sans-serif" font-size="37.5" lengthAdjust="spacing" textLength="190.1001" x="81.25" y="1217.6794">userId: int</text><rect fill="none" height="18.75" style="stroke:#595959;stroke-width:3.125;" width="18.75" x="46.875" y="1243.6621"/><text fill="#000000" font-family="sans-serif" font-size="37.5" lengthAdjust="spacing" textLength="199.7131" x="81.25" y="1261.3318">bookId: int</text><rect fill="none" height="18.75" style="stroke:#595959;stroke-width:3.125;" width="18.75" x="46.875" y="1287.3145"/><text fill="#000000" font-family="sans-serif" font-size="37.5" lengthAdjust="spacing" textLength="280.7739" x="81.25" y="1304.9841">rentDate: Date</text><rect fill="none" height="18.75" style="stroke:#595959;stroke-width:3.125;" width="18.75" x="46.875" y="1330.9668"/><text fill="#000000" font-family="sans-serif" font-size="37.5" lengthAdjust="spacing" textLength="319.9585" x="81.25" y="1348.6365">returnDate: Date</text><line style="stroke:#000000;stroke-width:1.5625;" x1="25" x2="416.8335" y1="1369.9805" y2="1369.9805"/><ellipse cx="56.25" cy="1408.9941" fill="#A6A6A6" rx="9.375" ry="9.375" style="stroke:#545454;stroke-width:3.125;"/><text fill="#000000" font-family="sans-serif" font-size="37.5" lengthAdjust="spacing" textLength="199.5483" x="81.25" y="1417.2888">rentBook()</text><ellipse cx="56.25" cy="1452.6465" fill="#A6A6A6" rx="9.375" ry="9.375" style="stroke:#545454;stroke-width:3.125;"/><text fill="#000000" font-family="sans-serif" font-size="37.5" lengthAdjust="spacing" textLength="238.7329" x="81.25" y="1460.9412">returnBook()</text></g><!--class ContactForm--><g class="entity" data-entity="ContactForm" data-source-line="69" data-uid="ent0007" id="entity_ContactForm"><rect fill="#FFFFFF" height="318.3594" rx="7.8125" ry="7.8125" style="stroke:#000000;stroke-width:1.5625;" width="400.4272" x="530.0625" y="1098.4375"/><ellipse cx="602.756" cy="1145.3125" fill="#C2C2C2" rx="31.25" ry="31.25" style="stroke:#181818;stroke-width:3.125;"/><path d="M608.4689,1158.5938 Q607.1993,1159.2285 605.7833,1159.5703 Q604.3673,1159.9121 602.8536,1159.9121 Q597.2872,1159.9121 594.3575,1156.2988 Q591.4767,1152.6367 591.4767,1145.752 Q591.4767,1138.8184 594.3575,1135.2051 Q597.2872,1131.543 602.8536,1131.543 Q604.3673,1131.543 605.7833,1131.8848 Q607.2482,1132.1777 608.4689,1132.8613 L608.4689,1138.8672 Q607.1017,1137.5977 605.7833,1137.0117 Q604.465,1136.377 603.0978,1136.377 Q600.1193,1136.377 598.6056,1138.7695 Q597.0919,1141.1133 597.0919,1145.752 Q597.0919,1150.3418 598.6056,1152.6855 Q600.1193,1155.0293 603.0978,1155.0293 Q604.465,1155.0293 605.7833,1154.4434 Q607.1017,1153.8574 608.4689,1152.5879 L608.4689,1158.5938 Z " fill="#000000"/><text fill="#000000" font-family="sans-serif" font-size="37.5" lengthAdjust="spacing" textLength="242.3584" x="649.8129" y="1158.2947">ContactForm</text><line style="stroke:#000000;stroke-width:1.5625;" x1="533.1875" x2="927.3647" y1="1192.1875" y2="1192.1875"/><rect fill="none" height="18.75" style="stroke:#595959;stroke-width:3.125;" width="18.75" x="555.0625" y="1221.8262"/><text fill="#000000" font-family="sans-serif" font-size="37.5" lengthAdjust="spacing" textLength="248.6389" x="589.4375" y="1239.4958">contactId: int</text><rect fill="none" height="18.75" style="stroke:#595959;stroke-width:3.125;" width="18.75" x="555.0625" y="1265.4785"/><text fill="#000000" font-family="sans-serif" font-size="37.5" lengthAdjust="spacing" textLength="322.3022" x="589.4375" y="1283.1482">userEmail: String</text><rect fill="none" height="18.75" style="stroke:#595959;stroke-width:3.125;" width="18.75" x="555.0625" y="1309.1309"/><text fill="#000000" font-family="sans-serif" font-size="37.5" lengthAdjust="spacing" textLength="304.9988" x="589.4375" y="1326.8005">message: String</text><line style="stroke:#000000;stroke-width:1.5625;" x1="533.1875" x2="927.3647" y1="1348.1445" y2="1348.1445"/><ellipse cx="564.4375" cy="1387.1582" fill="#A6A6A6" rx="9.375" ry="9.375" style="stroke:#545454;stroke-width:3.125;"/><text fill="#000000" font-family="sans-serif" font-size="37.5" lengthAdjust="spacing" textLength="285.4614" x="589.4375" y="1395.4529">sendToAdmin()</text></g><!--class Report--><g class="entity" data-entity="Report" data-source-line="76" data-uid="ent0008" id="entity_Report"><rect fill="#FFFFFF" height="274.707" rx="7.8125" ry="7.8125" style="stroke:#000000;stroke-width:1.5625;" width="550.6287" x="1276.8438" y="1847.625"/><ellipse cx="1476.6606" cy="1894.5" fill="#C2C2C2" rx="31.25" ry="31.25" style="stroke:#181818;stroke-width:3.125;"/><path d="M1482.3735,1907.7812 Q1481.104,1908.416 1479.688,1908.7578 Q1478.272,1909.0996 1476.7583,1909.0996 Q1471.1919,1909.0996 1468.2622,1905.4863 Q1465.3813,1901.8242 1465.3813,1894.9395 Q1465.3813,1888.0059 1468.2622,1884.3926 Q1471.1919,1880.7305 1476.7583,1880.7305 Q1478.272,1880.7305 1479.688,1881.0723 Q1481.1528,1881.3652 1482.3735,1882.0488 L1482.3735,1888.0547 Q1481.0063,1886.7852 1479.688,1886.1992 Q1478.3696,1885.5645 1477.0024,1885.5645 Q1474.0239,1885.5645 1472.5103,1887.957 Q1470.9966,1890.3008 1470.9966,1894.9395 Q1470.9966,1899.5293 1472.5103,1901.873 Q1474.0239,1904.2168 1477.0024,1904.2168 Q1478.3696,1904.2168 1479.688,1903.6309 Q1481.0063,1903.0449 1482.3735,1901.7754 L1482.3735,1907.7812 Z " fill="#000000"/><text fill="#000000" font-family="sans-serif" font-size="37.5" lengthAdjust="spacing" textLength="125.9949" x="1536.0356" y="1907.4822">Report</text><line style="stroke:#000000;stroke-width:1.5625;" x1="1279.9688" x2="1824.3474" y1="1941.375" y2="1941.375"/><rect fill="none" height="18.75" style="stroke:#595959;stroke-width:3.125;" width="18.75" x="1301.8438" y="1971.0137"/><text fill="#000000" font-family="sans-serif" font-size="37.5" lengthAdjust="spacing" textLength="223.6633" x="1336.2188" y="1988.6833">reportId: int</text><rect fill="none" height="18.75" style="stroke:#595959;stroke-width:3.125;" width="18.75" x="1301.8438" y="2014.666"/><text fill="#000000" font-family="sans-serif" font-size="37.5" lengthAdjust="spacing" textLength="397.5037" x="1336.2188" y="2032.3357">generatedDate: Date</text><line style="stroke:#000000;stroke-width:1.5625;" x1="1279.9688" x2="1824.3474" y1="2053.6797" y2="2053.6797"/><ellipse cx="1311.2188" cy="2092.6934" fill="#A6A6A6" rx="9.375" ry="9.375" style="stroke:#545454;stroke-width:3.125;"/><text fill="#000000" font-family="sans-serif" font-size="37.5" lengthAdjust="spacing" textLength="472.5037" x="1336.2188" y="2100.988">generateWeeklyUpdate()</text></g><!--link User to Rental--><g class="link" data-entity-1="User" data-entity-2="Rental" data-source-line="84" data-uid="lnk9" id="link_User_Rental"><path codeLine="84" d="M364.4063,777.4063 C338.2188,864.4688 311.1563,954.4375 287.6875,1032.4375" fill="none" id="User-Rental" style="stroke:#181818;stroke-width:3.125;"/><text fill="#000000" font-family="sans-serif" font-size="37.5" lengthAdjust="spacing" textLength="96.4966" x="339.6563" y="908.4646">rents</text><text fill="#000000" font-family="sans-serif" font-size="37.5" lengthAdjust="spacing" textLength="23.8586" x="335.0541" y="836.5845">1</text><text fill="#000000" font-family="sans-serif" font-size="37.5" lengthAdjust="spacing" textLength="105.4688" x="186.4565" y="998.4097">many</text></g><!--link Rental to Book--><g class="link" data-entity-1="Rental" data-entity-2="Book" data-source-line="85" data-uid="lnk10" id="link_Rental_Book"><path codeLine="85" d="M316.25,1483 C350.875,1563.6875 390.1875,1655.2812 425.5625,1737.75" fill="none" id="Rental-Book" style="stroke:#181818;stroke-width:3.125;"/><text fill="#000000" font-family="sans-serif" font-size="37.5" lengthAdjust="spacing" textLength="51.5625" x="389.6563" y="1635.8083">for</text><text fill="#000000" font-family="sans-serif" font-size="37.5" lengthAdjust="spacing" textLength="23.8586" x="302.7803" y="1542.142">1</text><text fill="#000000" font-family="sans-serif" font-size="37.5" lengthAdjust="spacing" textLength="23.8586" x="391.8623" y="1704.4987">1</text></g><!--link Admin to Book--><g class="link" data-entity-1="Admin" data-entity-2="Book" data-source-line="86" data-uid="lnk11" id="link_Admin_Book"><path codeLine="86" d="M1038.3438,1470.6875 C1021.2813,1482.6563 1003.9375,1493.9375 986.5313,1504.125 C881.875,1565.3438 821.4063,1517.8438 730.2813,1597.875 C686.8125,1636.0625 651.375,1686 623.125,1737.1875" fill="none" id="Admin-Book" style="stroke:#181818;stroke-width:3.125;"/><text fill="#000000" font-family="sans-serif" font-size="37.5" lengthAdjust="spacing" textLength="172.6685" x="733.4063" y="1635.8083">manages</text><text fill="#000000" font-family="sans-serif" font-size="37.5" lengthAdjust="spacing" textLength="23.8586" x="991.459" y="1484.9027">1</text><text fill="#000000" font-family="sans-serif" font-size="37.5" lengthAdjust="spacing" textLength="105.4688" x="524.3775" y="1703.8782">many</text></g><!--link Admin to Category--><g class="link" data-entity-1="Admin" data-entity-2="Category" data-source-line="87" data-uid="lnk12" id="link_Admin_Category"><path codeLine="87" d="M1142.4688,1504.5313 C1106.9063,1578.3438 1070.4688,1660.5313 1042.7813,1738.5 C945.8125,2011.4687 986,2098.875 889.6563,2372.0938 C878.9063,2402.5625 865.875,2434.2188 852.25,2464.6875" fill="none" id="Admin-Category" style="stroke:#181818;stroke-width:3.125;"/><text fill="#000000" font-family="sans-serif" font-size="37.5" lengthAdjust="spacing" textLength="172.6685" x="1045.9063" y="1999.4646">manages</text><text fill="#000000" font-family="sans-serif" font-size="37.5" lengthAdjust="spacing" textLength="23.8586" x="1107.8356" y="1564.1119">1</text><text fill="#000000" font-family="sans-serif" font-size="37.5" lengthAdjust="spacing" textLength="105.4688" x="754.5443" y="2431.8667">many</text></g><!--link User to ContactForm--><g class="link" data-entity-1="User" data-entity-2="ContactForm" data-source-line="88" data-uid="lnk13" id="link_User_ContactForm"><path codeLine="88" d="M588.5625,777.4063 C621.9688,889.9375 656.8438,1007.25 683.625,1097.4062" fill="none" id="User-ContactForm" style="stroke:#181818;stroke-width:3.125;"/><text fill="#000000" font-family="sans-serif" font-size="37.5" lengthAdjust="spacing" textLength="109.7168" x="630.2813" y="908.4646">sends</text><text fill="#000000" font-family="sans-serif" font-size="37.5" lengthAdjust="spacing" textLength="23.8586" x="572.8699" y="836.5845">1</text><text fill="#000000" font-family="sans-serif" font-size="37.5" lengthAdjust="spacing" textLength="105.4688" x="565.6405" y="1064.1787">many</text></g><!--link Admin to Report--><g class="link" data-entity-1="Admin" data-entity-2="Report" data-source-line="89" data-uid="lnk14" id="link_Admin_Report"><path codeLine="89" d="M1366.125,1504.875 C1410.5938,1618.875 1461.8438,1750.2813 1499.2813,1846.25" fill="none" id="Admin-Report" style="stroke:#181818;stroke-width:3.125;"/><text fill="#000000" font-family="sans-serif" font-size="37.5" lengthAdjust="spacing" textLength="189.4226" x="1420.9063" y="1635.8083">generates</text><text fill="#000000" font-family="sans-serif" font-size="37.5" lengthAdjust="spacing" textLength="23.8586" x="1351.8437" y="1563.6466">1</text><text fill="#000000" font-family="sans-serif" font-size="37.5" lengthAdjust="spacing" textLength="105.4688" x="1378.4072" y="1813.3583">many</text></g><!--link Book to Category--><g class="link" data-entity-1="Book" data-entity-2="Category" data-source-line="90" data-uid="lnk15" id="link_Book_Category"><path codeLine="90" d="M616.4063,2232.2188 C643.625,2309.4063 673.1875,2393.2188 698.5,2464.9375" fill="none" id="Book-Category" style="stroke:#181818;stroke-width:3.125;"/><text fill="#000000" font-family="sans-serif" font-size="37.5" lengthAdjust="spacing" textLength="196.9116" x="664.6563" y="2363.1521">belongs to</text><text fill="#000000" font-family="sans-serif" font-size="37.5" lengthAdjust="spacing" textLength="23.8586" x="601.3156" y="2290.9903">1</text><text fill="#000000" font-family="sans-serif" font-size="37.5" lengthAdjust="spacing" textLength="23.8586" x="666.8189" y="2432.1503">1</text></g><!--SRC=[XLJBRjim4BphAmXVuY0maBGttH8tGNee4CGDUgR5jKoO8jKb5KCjykzTFYHHgejU9Evm7xF39Q_OPhDXEt1Ewjfwex0dgLkEl66DqQOwecc0EUmWsn5mu9roJqQxdVm5xEvJljbAzldsDaCgnQrblml67dXrgj5qMcoDCiZEH-d0umO5OCJsYfoAZwAu2kIsFXWYjo9cUhE08Ts6TRJyAaecjHjjpHiesSuXzHH0QBXKCuGBWM3j36ifzPbuPE0DGwYbTO3hws0gKqkTrkyIpiyapWkl8OFktwaOtojuCEPaqmQ2TjvUx-cJ-CQThXNSmGkQWrH3cefqvPMx5mqLQuWdLHXOJOL-09nK_nRYxSJFT8wCZq6ha2I9nVtwlsfTr25llE6Q26sfR6rGZhKZd7VjMNw3PW_uRtxUFz7Bj0csaqxDgLMnPZy3VtPSasi_1ROeAmeKfgDZ2CWPP7rqCqY0hL2sJXezwrJQyGJNrwKdfO3hYN3gkq-a1qevyOMaDtxSXh0aX0053XPWd8KC78k-qlnmbKfYC9RdcDjB9Nt45qfRClzDaEjGpy1iJ8UfzJu9c0I8q_bai1aqYCYIqUDVrsunow681Is-cpZhiuvRWsxis1jv_Xeq8D4MYmu6FBySCMryJLv1SN_azYZRzAQ4rsHrjoABhMY8-zKWTna4iKKo1n_wXQajsS5W4I_OF3vjnnjXBxgCOpIvNI2IQrq6gIvdIsgLO_-s21moobd1FIZZdtjd_W00]--></g></svg>